<?xml version="1.0" encoding="utf-8"?>
<!-- Generator: Adobe Illustrator 22.0.0, SVG Export Plug-In . SVG Version: 6.00 Build 0)  -->
<svg version="1.1" id="Capa_1" xmlns="http://www.w3.org/2000/svg" xmlns:xlink="http://www.w3.org/1999/xlink" x="0px" y="0px"
	 viewBox="0 0 167.1 200" style="enable-background:new 0 0 167.1 200;" xml:space="preserve">
<style type="text/css">
	.st0{fill:#2D2D2D;}
	.st1{fill:#2D2D2D;stroke:#FFFFFF;stroke-width:9;stroke-miterlimit:10;}
	.st2{fill:#FD5631;}
	.st3{fill:#FFFFFF;}
	.st4{fill:none;stroke:#2D2D2D;stroke-width:14;stroke-miterlimit:10;}
	.st5{fill:none;stroke:#2D2D2D;stroke-width:25;stroke-miterlimit:10;}
</style>
<g>
	<path class="st0" d="M-6586.1,4087.5c0,23.6-6.9,30.4-58.8,122.3h-42.2l36.5-65.6c-3.6,0.9-7.3,1.4-10.9,1.4
		c-28,0-53.6-25.6-53.6-58.5c0-34.6,28.3-63.8,64.5-63.8C-6614.2,4023.2-6586.1,4052.7-6586.1,4087.5z M-6623,4087.6
		c0-15-12.6-27.8-27.8-27.8c-15.2,0-27.6,12.7-27.6,27.8c0,14.9,12.5,27.6,27.6,27.6C-6635.6,4115.2-6623,4102.6-6623,4087.6z"/>
	<path class="st0" d="M-6441.2,4087.5c0,23.6-6.9,30.4-58.8,122.3h-42.2l36.5-65.6c-3.6,0.9-7.3,1.4-10.9,1.4
		c-28,0-53.6-25.6-53.6-58.5c0-34.6,28.3-63.8,64.5-63.8C-6469.3,4023.2-6441.2,4052.7-6441.2,4087.5z M-6478,4087.6
		c0-15-12.6-27.8-27.8-27.8c-15.2,0-27.6,12.7-27.6,27.8c0,14.9,12.5,27.6,27.6,27.6S-6478,4102.6-6478,4087.6z"/>
</g>
<g>
	<path class="st0" d="M-6398.7,4094.1l2.1,13.5c9-14.5,21.1-16.6,33-16.6c12.1,0,23.8,4.8,30.2,11.2l-13.1,25.2
		c-5.9-5-11.4-7.6-20.9-7.6c-15.2,0-29.2,8.1-29.2,29.7v61.8h-29v-117.1H-6398.7z"/>
	<path class="st0" d="M-6297.7,4163c1.9,14.5,14.5,24.9,34.9,24.9c10.7,0,24.7-4,31.4-10.9l18.5,18.3c-12.4,12.8-32.6,19-50.4,19
		c-40.4,0-64.4-25-64.4-62.5c0-35.6,24.2-61.3,62.3-61.3c39.2,0,63.7,24.2,59.2,72.5H-6297.7z M-6234,4139
		c-1.9-15.2-13.8-22.8-30.4-22.8c-15.7,0-28.5,7.6-32.8,22.8H-6234z"/>
	<path class="st0" d="M-6091,4094.1h27.8v117.1h-27.3l-1.4-17.1c-6.7,13.8-24.9,20.4-38,20.7c-34.7,0.2-60.4-21.1-60.4-62.3
		c0-40.4,26.9-61.5,61.1-61.3c15.7,0,30.7,7.4,37.3,19L-6091,4094.1z M-6161.3,4152.5c0,22.3,15.4,35.6,34.7,35.6
		c45.6,0,45.6-71,0-71C-6145.9,4117.1-6161.3,4130.2-6161.3,4152.5z"/>
	<path class="st0" d="M-6009.9,4045.1v166.1h-28.8v-166.1H-6009.9z"/>
	<path class="st0" d="M-5959.8,4163c1.9,14.5,14.5,24.9,34.9,24.9c10.7,0,24.7-4,31.4-10.9l18.5,18.3c-12.4,12.8-32.6,19-50.4,19
		c-40.4,0-64.4-25-64.4-62.5c0-35.6,24.2-61.3,62.3-61.3c39.2,0,63.7,24.2,59.2,72.5H-5959.8z M-5896.1,4139
		c-1.9-15.2-13.8-22.8-30.4-22.8c-15.7,0-28.5,7.6-32.8,22.8H-5896.1z"/>
	<path class="st0" d="M-5769.5,4125.2c-8.3-7.8-17.8-10.5-29-10.5c-13.8,0-21.4,4.3-21.4,11.6c0,7.6,6.9,11.9,21.9,12.8
		c22.1,1.4,50.1,6.4,50.1,37.5c0,20.7-16.9,38.5-50.4,38.5c-18.5,0-37.1-3.1-54.2-20.9l14.3-20.7c8.3,9.3,27.3,16.2,40.4,16.4
		c10.9,0.2,21.1-5.5,21.1-14c0-8.1-6.7-11.4-23.3-12.4c-22.1-1.7-48.5-9.7-48.5-36.4c0-27.1,28-36.6,49.4-36.6
		c18.3,0,32.1,3.6,45.6,15.4L-5769.5,4125.2z"/>
</g>
<g>
	<g>
		<path class="st0" d="M-2639.6,3890.5c0-33-26.9-59.8-60-59.8c-33.1,0-60,26.6-60,59.3c0,29.3,22.5,54,49.1,54
			c3.3,0,6.6-0.4,9.8-1.2l10.1-2.5l-37.8,68h31.9c9-15.9,16.8-29.5,23-40.5C-2644.1,3916.4-2639.6,3908.5-2639.6,3890.5z
			 M-2699.7,3922.7c-17.4,0-32.1-14.7-32.1-32.1c0-17.8,14.4-32.3,32.1-32.3c17.5,0,32.3,14.8,32.3,32.3
			C-2667.5,3908-2682.2,3922.7-2699.7,3922.7z"/>
	</g>
	<g>
		<path class="st0" d="M-2494.7,3890.5c0-33-26.9-59.8-60-59.8s-60,26.6-60,59.3c0,29.3,22.5,54,49.1,54c3.3,0,6.6-0.4,9.8-1.2
			l10.1-2.5l-37.8,68h31.9c9-15.9,16.7-29.5,23-40.5C-2499.2,3916.4-2494.7,3908.5-2494.7,3890.5z M-2554.8,3922.7
			c-17.4,0-32.1-14.7-32.1-32.1c0-17.8,14.4-32.3,32.1-32.3c17.5,0,32.3,14.8,32.3,32.3C-2522.5,3908-2537.3,3922.7-2554.8,3922.7z"
			/>
	</g>
</g>
<g>
	<path class="st1" d="M-3527.1,3890.2c0,23.6-6.9,30.4-58.8,122.3h-42.2l36.5-65.6c-3.6,0.9-7.3,1.4-10.9,1.4
		c-28,0-53.6-25.6-53.6-58.5c0-34.6,28.3-63.8,64.5-63.8C-3555.2,3825.9-3527.1,3855.4-3527.1,3890.2z M-3564,3890.3
		c0-15-12.6-27.8-27.8-27.8c-15.2,0-27.6,12.7-27.6,27.8c0,14.9,12.5,27.6,27.6,27.6C-3576.6,3918-3564,3905.3-3564,3890.3z"/>
	<path class="st1" d="M-3382.2,3890.2c0,23.6-6.9,30.4-58.8,122.3h-42.2l36.5-65.6c-3.6,0.9-7.3,1.4-10.9,1.4
		c-28,0-53.6-25.6-53.6-58.5c0-34.6,28.3-63.8,64.5-63.8C-3410.3,3825.9-3382.2,3855.4-3382.2,3890.2z M-3419,3890.3
		c0-15-12.6-27.8-27.8-27.8c-15.2,0-27.6,12.7-27.6,27.8c0,14.9,12.5,27.6,27.6,27.6C-3431.7,3918-3419,3905.3-3419,3890.3z"/>
</g>
<g>
	<path class="st0" d="M-2441.2,3863.9l2.3,14.4c9.6-15.4,22.4-17.6,35-17.6c12.8,0,25.2,5,32,11.8l-13.8,26.7
		c-6.3-5.3-12.1-8.1-22.2-8.1c-16.1,0-31,8.6-31,31.5v65.5h-30.7v-124.1H-2441.2z"/>
	<path class="st0" d="M-2334.2,3936.9c2,15.4,15.4,26.4,37,26.4c11.3,0,26.2-4.3,33.2-11.6l19.6,19.4
		c-13.1,13.6-34.5,20.1-53.4,20.1c-42.8,0-68.2-26.4-68.2-66.2c0-37.8,25.7-65,66-65c41.5,0,67.5,25.7,62.7,76.8H-2334.2z
		 M-2266.8,3911.4c-2-16.1-14.6-24.2-32.2-24.2c-16.6,0-30.2,8.1-34.7,24.2H-2266.8z"/>
	<path class="st0" d="M-2115.2,3863.9h29.5V3988h-29l-1.5-18.1c-7,14.6-26.4,21.7-40.3,21.9c-36.8,0.3-63.9-22.4-63.9-66
		c0-42.8,28.4-65.2,64.7-65c16.6,0,32.5,7.8,39.5,20.1L-2115.2,3863.9z M-2189.7,3925.8c0,23.7,16.4,37.8,36.8,37.8
		c48.3,0,48.3-75.3,0-75.3C-2173.4,3888.3-2189.7,3902.1-2189.7,3925.8z"/>
	<path class="st0" d="M-2029.4,3812v176h-30.5v-176H-2029.4z"/>
	<path class="st0" d="M-1976.3,3936.9c2,15.4,15.4,26.4,37,26.4c11.3,0,26.2-4.3,33.2-11.6l19.6,19.4
		c-13.1,13.6-34.5,20.1-53.4,20.1c-42.8,0-68.2-26.4-68.2-66.2c0-37.8,25.7-65,66-65c41.5,0,67.5,25.7,62.7,76.8H-1976.3z
		 M-1908.8,3911.4c-2-16.1-14.6-24.2-32.2-24.2c-16.6,0-30.2,8.1-34.7,24.2H-1908.8z"/>
	<path class="st0" d="M-1774.6,3896.8c-8.8-8.3-18.9-11.1-30.7-11.1c-14.6,0-22.7,4.5-22.7,12.3c0,8.1,7.3,12.6,23.2,13.6
		c23.4,1.5,53.1,6.8,53.1,39.8c0,21.9-17.9,40.8-53.4,40.8c-19.6,0-39.3-3.3-57.4-22.2l15.1-21.9c8.8,9.8,29,17.1,42.8,17.4
		c11.6,0.3,22.4-5.8,22.4-14.9c0-8.6-7-12.1-24.7-13.1c-23.4-1.8-51.4-10.3-51.4-38.5c0-28.7,29.7-38.8,52.4-38.8
		c19.4,0,34,3.8,48.3,16.4L-1774.6,3896.8z"/>
</g>
<rect x="-5617.9" y="1908" class="st2" width="420" height="283"/>
<g>
	<path class="st3" d="M-5419.4,2005.9c0,34.4-10.1,44.4-85.9,178.6h-61.6l53.3-95.9c-5.3,1.3-10.6,2-16,2
		c-40.9,0-78.3-37.4-78.3-85.4c0-50.5,41.4-93.2,94.2-93.2C-5460.4,1912-5419.4,1955-5419.4,2005.9z M-5473.2,2006
		c0-21.9-18.4-40.5-40.5-40.5c-22.3,0-40.4,18.6-40.4,40.5c0,21.8,18.3,40.4,40.4,40.4C-5491.7,2046.4-5473.2,2028-5473.2,2006z"/>
	<path class="st3" d="M-5207.7,2005.9c0,34.4-10.1,44.4-85.9,178.6h-61.6l53.3-95.9c-5.3,1.3-10.6,2-16,2
		c-40.9,0-78.3-37.4-78.3-85.4c0-50.5,41.4-93.2,94.2-93.2C-5248.8,1912-5207.7,1955-5207.7,2005.9z M-5261.6,2006
		c0-21.9-18.4-40.5-40.5-40.5c-22.3,0-40.4,18.6-40.4,40.5c0,21.8,18.3,40.4,40.4,40.4C-5280,2046.4-5261.6,2028-5261.6,2006z"/>
</g>
<g>
	<path class="st0" d="M-5145.6,2015.5l3.1,19.8c13.2-21.2,30.9-24.3,48.2-24.3c17.7,0,34.7,6.9,44.1,16.3l-19.1,36.8
		c-8.7-7.3-16.7-11.1-30.5-11.1c-22.2,0-42.7,11.8-42.7,43.4v90.2h-42.3v-171.1H-5145.6z"/>
	<path class="st0" d="M-4998.2,2116.1c2.8,21.2,21.2,36.4,51,36.4c15.6,0,36.1-5.9,45.8-16l27.1,26.7c-18,18.7-47.5,27.8-73.6,27.8
		c-59,0-94-36.4-94-91.3c0-52.1,35.4-89.5,90.9-89.5c57.3,0,93,35.4,86.4,105.8H-4998.2z M-4905.2,2081.1
		c-2.8-22.2-20.1-33.3-44.4-33.3c-22.9,0-41.6,11.1-47.9,33.3H-4905.2z"/>
	<path class="st0" d="M-4696.3,2015.5h40.6v171.1h-39.9l-2.1-25c-9.7,20.1-36.4,29.8-55.5,30.2c-50.7,0.3-88.1-30.9-88.1-90.9
		c0-59,39.2-89.9,89.2-89.5c22.9,0,44.8,10.8,54.5,27.8L-4696.3,2015.5z M-4799,2100.9c0,32.6,22.6,52.1,50.7,52.1
		c66.6,0,66.6-103.8,0-103.8C-4776.4,2049.1-4799,2068.2-4799,2100.9z"/>
	<path class="st0" d="M-4577.9,1944v242.6h-42V1944H-4577.9z"/>
	<path class="st0" d="M-4504.7,2116.1c2.8,21.2,21.2,36.4,51,36.4c15.6,0,36.1-5.9,45.8-16l27.1,26.7c-18,18.7-47.5,27.8-73.6,27.8
		c-59,0-94-36.4-94-91.3c0-52.1,35.4-89.5,90.9-89.5c57.3,0,93,35.4,86.4,105.8H-4504.7z M-4411.7,2081.1
		c-2.8-22.2-20.1-33.3-44.4-33.3c-22.9,0-41.6,11.1-47.9,33.3H-4411.7z"/>
	<path class="st0" d="M-4226.7,2060.9c-12.1-11.5-26-15.3-42.3-15.3c-20.1,0-31.2,6.2-31.2,17c0,11.1,10.1,17.4,31.9,18.7
		c32.3,2.1,73.2,9.4,73.2,54.8c0,30.2-24.6,56.2-73.6,56.2c-27.1,0-54.1-4.5-79.1-30.5l20.8-30.2c12.1,13.5,39.9,23.6,59,23.9
		c16,0.3,30.9-8,30.9-20.5c0-11.8-9.7-16.7-34-18c-32.3-2.4-70.8-14.2-70.8-53.1c0-39.6,40.9-53.4,72.2-53.4
		c26.7,0,46.8,5.2,66.6,22.6L-4226.7,2060.9z"/>
</g>
<g>
	<path class="st0" d="M-5510.4-107.1c0,34.4-10.1,44.4-85.9,178.6h-61.6l53.3-95.9c-5.3,1.3-10.6,2-16,2
		c-40.9,0-78.3-37.4-78.3-85.4c0-50.5,41.4-93.2,94.2-93.2C-5551.4-201-5510.4-158-5510.4-107.1z M-5564.2-107
		c0-21.9-18.4-40.5-40.5-40.5c-22.3,0-40.4,18.6-40.4,40.5c0,21.8,18.3,40.4,40.4,40.4C-5582.7-66.6-5564.2-85-5564.2-107z"/>
	<path class="st0" d="M-5298.7-107.1c0,34.4-10.1,44.4-85.9,178.6h-61.6l53.3-95.9c-5.3,1.3-10.6,2-16,2
		c-40.9,0-78.3-37.4-78.3-85.4c0-50.5,41.4-93.2,94.2-93.2C-5339.8-201-5298.7-158-5298.7-107.1z M-5352.6-107
		c0-21.9-18.4-40.5-40.5-40.5c-22.3,0-40.4,18.6-40.4,40.5c0,21.8,18.3,40.4,40.4,40.4C-5371-66.6-5352.6-85-5352.6-107z"/>
</g>
<g>
	<path class="st0" d="M-5227.8-102.1l3.1,19.4c12.9-20.8,30.3-23.8,47.3-23.8c17.4,0,34,6.8,43.2,16l-18.7,36.1
		c-8.5-7.1-16.3-10.9-29.9-10.9c-21.8,0-41.9,11.6-41.9,42.5v88.5h-41.5v-167.8H-5227.8z"/>
	<path class="st0" d="M-5083.2-3.4c2.7,20.8,20.8,35.7,50,35.7c15.3,0,35.4-5.8,44.9-15.7l26.5,26.2c-17.7,18.4-46.6,27.2-72.1,27.2
		c-57.8,0-92.2-35.7-92.2-89.5c0-51,34.7-87.8,89.2-87.8c56.1,0,91.2,34.7,84.7,103.8H-5083.2z M-4992-37.8
		c-2.7-21.8-19.7-32.7-43.6-32.7c-22.5,0-40.8,10.9-47,32.7H-4992z"/>
	<path class="st0" d="M-4787.1-102.1h39.8V65.7h-39.1l-2-24.5c-9.5,19.7-35.7,29.3-54.4,29.6c-49.7,0.3-86.4-30.3-86.4-89.2
		c0-57.8,38.5-88.1,87.5-87.8c22.5,0,43.9,10.5,53.4,27.2L-4787.1-102.1z M-4887.9-18.4c0,32,22.1,51,49.7,51
		c65.3,0,65.3-101.7,0-101.7C-4865.7-69.1-4887.9-50.4-4887.9-18.4z"/>
	<path class="st0" d="M-4671.1-172.2V65.7h-41.2v-237.9H-4671.1z"/>
	<path class="st0" d="M-4599.3-3.4c2.7,20.8,20.8,35.7,50,35.7c15.3,0,35.4-5.8,44.9-15.7l26.5,26.2c-17.7,18.4-46.6,27.2-72.1,27.2
		c-57.8,0-92.2-35.7-92.2-89.5c0-51,34.7-87.8,89.2-87.8c56.1,0,91.2,34.7,84.7,103.8H-4599.3z M-4508.1-37.8
		c-2.7-21.8-19.7-32.7-43.6-32.7c-22.5,0-40.8,10.9-47,32.7H-4508.1z"/>
	<path class="st0" d="M-4326.7-57.5c-11.9-11.2-25.5-15-41.5-15c-19.7,0-30.6,6.1-30.6,16.7c0,10.9,9.9,17,31.3,18.4
		c31.6,2,71.8,9.2,71.8,53.8c0,29.6-24.2,55.1-72.1,55.1c-26.5,0-53.1-4.4-77.6-29.9l20.4-29.6c11.9,13.3,39.1,23.1,57.8,23.5
		c15.7,0.3,30.3-7.8,30.3-20.1c0-11.6-9.5-16.3-33.3-17.7c-31.6-2.4-69.4-14-69.4-52.1c0-38.8,40.2-52.4,70.8-52.4
		c26.2,0,45.9,5.1,65.3,22.1L-4326.7-57.5z"/>
</g>
<g>
	<path class="st2" d="M-2798.4-2387.1c0,34.4-10.1,44.4-85.9,178.6h-61.6l53.3-95.9c-5.3,1.3-10.6,2-16,2
		c-40.9,0-78.3-37.4-78.3-85.4c0-50.5,41.4-93.2,94.2-93.2C-2839.4-2481-2798.4-2438-2798.4-2387.1z M-2852.2-2387
		c0-21.9-18.4-40.5-40.5-40.5c-22.3,0-40.4,18.6-40.4,40.5c0,21.8,18.3,40.4,40.4,40.4C-2870.7-2346.6-2852.2-2365-2852.2-2387z"/>
	<path class="st2" d="M-2586.7-2387.1c0,34.4-10.1,44.4-85.9,178.6h-61.6l53.3-95.9c-5.3,1.3-10.6,2-16,2
		c-40.9,0-78.3-37.4-78.3-85.4c0-50.5,41.4-93.2,94.2-93.2C-2627.8-2481-2586.7-2438-2586.7-2387.1z M-2640.6-2387
		c0-21.9-18.4-40.5-40.5-40.5c-22.3,0-40.4,18.6-40.4,40.5c0,21.8,18.3,40.4,40.4,40.4C-2659-2346.6-2640.6-2365-2640.6-2387z"/>
</g>
<g>
	<path class="st0" d="M-2515.8-2382.1l3.1,19.4c12.9-20.8,30.3-23.8,47.3-23.8c17.4,0,34,6.8,43.2,16l-18.7,36.1
		c-8.5-7.1-16.3-10.9-29.9-10.9c-21.8,0-41.9,11.6-41.9,42.5v88.5h-41.5v-167.8H-2515.8z"/>
	<path class="st0" d="M-2371.2-2283.4c2.7,20.8,20.8,35.7,50,35.7c15.3,0,35.4-5.8,44.9-15.7l26.5,26.2
		c-17.7,18.4-46.6,27.2-72.1,27.2c-57.8,0-92.2-35.7-92.2-89.5c0-51,34.7-87.8,89.2-87.8c56.1,0,91.2,34.7,84.7,103.8H-2371.2z
		 M-2280-2317.8c-2.7-21.8-19.7-32.7-43.6-32.7c-22.5,0-40.8,10.9-47,32.7H-2280z"/>
	<path class="st0" d="M-2075.1-2382.1h39.8v167.8h-39.1l-2-24.5c-9.5,19.7-35.7,29.3-54.4,29.6c-49.7,0.3-86.4-30.3-86.4-89.2
		c0-57.8,38.5-88.1,87.5-87.8c22.5,0,43.9,10.5,53.4,27.2L-2075.1-2382.1z M-2175.9-2298.4c0,32,22.1,51,49.7,51
		c65.3,0,65.3-101.7,0-101.7C-2153.7-2349.1-2175.9-2330.4-2175.9-2298.4z"/>
	<path class="st0" d="M-1959.1-2452.2v237.9h-41.2v-237.9H-1959.1z"/>
	<path class="st0" d="M-1887.3-2283.4c2.7,20.8,20.8,35.7,50,35.7c15.3,0,35.4-5.8,44.9-15.7l26.5,26.2
		c-17.7,18.4-46.6,27.2-72.1,27.2c-57.8,0-92.2-35.7-92.2-89.5c0-51,34.7-87.8,89.2-87.8c56.1,0,91.2,34.7,84.7,103.8H-1887.3z
		 M-1796.1-2317.8c-2.7-21.8-19.7-32.7-43.6-32.7c-22.5,0-40.8,10.9-47,32.7H-1796.1z"/>
	<path class="st0" d="M-1614.7-2337.5c-11.9-11.2-25.5-15-41.5-15c-19.7,0-30.6,6.1-30.6,16.7c0,10.9,9.9,17,31.3,18.4
		c31.6,2,71.8,9.2,71.8,53.8c0,29.6-24.2,55.1-72.1,55.1c-26.5,0-53.1-4.4-77.6-29.9l20.4-29.6c11.9,13.3,39.1,23.1,57.8,23.5
		c15.7,0.3,30.3-7.8,30.3-20.1c0-11.6-9.5-16.3-33.3-17.7c-31.6-2.4-69.4-14-69.4-52.1c0-38.8,40.2-52.4,70.8-52.4
		c26.2,0,45.9,5.1,65.3,22.1L-1614.7-2337.5z"/>
</g>
<text transform="matrix(1 0 0 1 -5328.4448 -2309.3167)" style="font-family:'LEMONMILK-Medium'; font-size:340.2794px;">99</text>
<text transform="matrix(1 0 0 1 -4897.8594 -2309.3167)" style="font-family:'NexaBold'; font-size:340.2794px;">reales</text>
<rect x="-3498.9" y="-2694" class="st2" width="140" height="140"/>
<rect x="-3498.9" y="-2481" class="st0" width="140" height="140"/>
<path class="st2" d="M-6733.8,4246.5c-13.4,0-25.9-5.2-35.4-14.6c-9.5-9.4-14.7-22-14.7-35.4V4044c0-13.4,5.2-25.9,14.7-35.4
	l133-133c9.4-9.4,22-14.7,35.4-14.7s25.9,5.2,35.4,14.7l133,133c9.4,9.4,14.6,22,14.7,35.4l-18,0c0-8.5-3.3-16.6-9.4-22.6l-133-133
	c-6-6-14.1-9.4-22.6-9.4c-8.6,0-16.6,3.3-22.6,9.4l-133,133c-6,6-9.4,14.1-9.4,22.6v152.5c0,8.6,3.3,16.6,9.4,22.6
	c6,6,14.1,9.4,22.6,9.4c0,0,0,0,0,0l1001.7-0.1c13.4,0,24.2-10.9,24.2-24.2V4189h18v15.2c0,23.3-18.9,42.2-42.2,42.2L-6733.8,4246.5
	C-6733.8,4246.5-6733.8,4246.5-6733.8,4246.5z"/>
<path class="st2" d="M-6600.8,4002.7c-21.5,0-39.1-17.5-39.1-39.1s17.5-39.1,39.1-39.1s39.1,17.5,39.1,39.1
	S-6579.3,4002.7-6600.8,4002.7z M-6600.8,3942.6c-11.6,0-21.1,9.5-21.1,21.1c0,11.6,9.5,21.1,21.1,21.1s21.1-9.5,21.1-21.1
	C-6579.8,3952-6589.2,3942.6-6600.8,3942.6z"/>
<path class="st4" d="M-5545.9,3313c0-10.9-4.3-21.3-12-29l-133-133c-16-16-42-16-58,0l-133,133c-7.7,7.7-12,18.1-12,29v152.5
	c0,22.7,18.4,41,41,41l1001.7-0.1c18.3,0,33.2-14.9,33.2-33.2V3458"/>
<circle class="st4" cx="-5719.8" cy="3232.7" r="30.1"/>
<path class="st4" d="M-4732.9,4281c0-10.9-4.3-21.3-12-29l-133-133c-16-16-42-16-58,0l-133,133c-7.7,7.7-12,18.1-12,29v152.5
	c0,22.7,18.4,41,41,41l1005.9-0.1"/>
<circle class="st4" cx="-4906.8" cy="4200.7" r="30.1"/>
<path class="st4" d="M-3803.9,4352.3c0-8.9,3.5-17.4,9.8-23.7l108.7-108.7c13.1-13.1,34.3-13.1,47.4,0l108.7,108.7
	c6.3,6.3,9.8,14.8,9.8,23.7v124.7c0,18.5-15,33.6-33.6,33.5l-217.5,0c-18.5,0-33.5-15-33.5-33.6"/>
<circle class="st4" cx="-3661.6" cy="4286.6" r="24.6"/>
<path class="st2" d="M-2761.9,4054c-14.2,0-27.6-5.5-37.7-15.6c-10.1-10.1-15.6-23.5-15.6-37.7V3849c0-14.2,5.5-27.6,15.6-37.7
	l132.2-132.2c20.8-20.8,54.6-20.8,75.4,0l132.2,132.2c10.1,10.1,15.6,23.4,15.6,37.7l-25,0c0-7.6-2.9-14.7-8.3-20l-132.2-132.2
	c-11-11-29-11-40,0l-132.2,132.2c-5.3,5.3-8.3,12.5-8.3,20v151.7c0,7.6,2.9,14.7,8.3,20c5.3,5.3,12.5,8.3,20,8.3c0,0,0,0,0,0
	l264.5-0.1c7.6,0,14.7-2.9,20-8.3c5.3-5.3,8.3-12.5,8.3-20l25,0c0,14.2-5.5,27.6-15.6,37.7c-10.1,10.1-23.5,15.6-37.7,15.6
	L-2761.9,4054C-2761.9,4054-2761.9,4054-2761.9,4054z"/>
<path class="st5" d="M-4186.3,3849c0-10.8-4.3-21.2-12-28.8l-132.2-132.2c-15.9-15.9-41.8-15.9-57.7,0l-132.2,132.2
	c-7.7,7.7-12,18-12,28.9v151.7c0,22.5,18.3,40.8,40.8,40.8l264.5-0.1c22.5,0,40.8-18.3,40.8-40.8"/>
<path class="st2" d="M-2629.6,3810c-22.6,0-40.9-18.4-40.9-40.9c0-22.6,18.4-40.9,40.9-40.9s40.9,18.4,40.9,40.9
	C-2588.7,3791.7-2607.1,3810-2629.6,3810z M-2629.6,3750.2c-10.4,0-18.9,8.5-18.9,18.9c0,10.4,8.5,18.9,18.9,18.9
	s18.9-8.5,18.9-18.9C-2610.7,3758.7-2619.2,3750.2-2629.6,3750.2z"/>
<g>
	<g>
		<path class="st0" d="M-8053.6,2037.5c0-33-26.9-59.8-60-59.8c-33.1,0-60,26.6-60,59.3c0,29.3,22.5,54,49.1,54
			c3.3,0,6.6-0.4,9.8-1.2l10.1-2.5l-37.8,68h31.9c9-15.9,16.8-29.5,23-40.5C-8058.1,2063.4-8053.6,2055.5-8053.6,2037.5z
			 M-8113.7,2069.7c-17.4,0-32.1-14.7-32.1-32.1c0-17.8,14.4-32.3,32.1-32.3c17.5,0,32.3,14.8,32.3,32.3
			C-8081.5,2055-8096.2,2069.7-8113.7,2069.7z"/>
	</g>
	<g>
		<path class="st0" d="M-7908.7,2037.5c0-33-26.9-59.8-60-59.8s-60,26.6-60,59.3c0,29.3,22.5,54,49.1,54c3.3,0,6.6-0.4,9.8-1.2
			l10.1-2.5l-37.8,68h31.9c9-15.9,16.7-29.5,23-40.5C-7913.2,2063.4-7908.7,2055.5-7908.7,2037.5z M-7968.8,2069.7
			c-17.4,0-32.1-14.7-32.1-32.1c0-17.8,14.4-32.3,32.1-32.3c17.5,0,32.3,14.8,32.3,32.3C-7936.5,2055-7951.3,2069.7-7968.8,2069.7z"
			/>
	</g>
</g>
<g>
	<path class="st0" d="M-7857.2,2010.9l2.3,14.4c9.6-15.4,22.4-17.6,35-17.6c12.8,0,25.2,5,32,11.8l-13.8,26.7
		c-6.3-5.3-12.1-8.1-22.2-8.1c-16.1,0-31,8.6-31,31.5v65.5h-30.7v-124.1H-7857.2z"/>
	<path class="st0" d="M-7750.2,2083.9c2,15.4,15.4,26.4,37,26.4c11.3,0,26.2-4.3,33.2-11.6l19.6,19.4
		c-13.1,13.6-34.5,20.1-53.4,20.1c-42.8,0-68.2-26.4-68.2-66.2c0-37.8,25.7-65,66-65c41.5,0,67.5,25.7,62.7,76.8H-7750.2z
		 M-7682.8,2058.4c-2-16.1-14.6-24.2-32.2-24.2c-16.6,0-30.2,8.1-34.7,24.2H-7682.8z"/>
	<path class="st0" d="M-7531.2,2010.9h29.5V2135h-29l-1.5-18.1c-7,14.6-26.4,21.7-40.3,21.9c-36.8,0.3-63.9-22.4-63.9-66
		c0-42.8,28.4-65.2,64.7-65c16.6,0,32.5,7.8,39.5,20.1L-7531.2,2010.9z M-7605.7,2072.8c0,23.7,16.4,37.8,36.8,37.8
		c48.3,0,48.3-75.3,0-75.3C-7589.4,2035.3-7605.7,2049.1-7605.7,2072.8z"/>
	<path class="st0" d="M-7445.4,1959v176h-30.5v-176H-7445.4z"/>
	<path class="st0" d="M-7392.3,2083.9c2,15.4,15.4,26.4,37,26.4c11.3,0,26.2-4.3,33.2-11.6l19.6,19.4
		c-13.1,13.6-34.5,20.1-53.4,20.1c-42.8,0-68.2-26.4-68.2-66.2c0-37.8,25.7-65,66-65c41.5,0,67.5,25.7,62.7,76.8H-7392.3z
		 M-7324.8,2058.4c-2-16.1-14.6-24.2-32.2-24.2c-16.6,0-30.2,8.1-34.7,24.2H-7324.8z"/>
	<path class="st0" d="M-7190.6,2043.8c-8.8-8.3-18.9-11.1-30.7-11.1c-14.6,0-22.7,4.5-22.7,12.3c0,8.1,7.3,12.6,23.2,13.6
		c23.4,1.5,53.1,6.8,53.1,39.8c0,21.9-17.9,40.8-53.4,40.8c-19.6,0-39.3-3.3-57.4-22.2l15.1-21.9c8.8,9.8,29,17.1,42.8,17.4
		c11.6,0.3,22.4-5.8,22.4-14.9c0-8.6-7-12.1-24.7-13.1c-23.4-1.8-51.4-10.3-51.4-38.5c0-28.7,29.7-38.8,52.4-38.8
		c19.4,0,34,3.8,48.3,16.4L-7190.6,2043.8z"/>
</g>
<g>
	<path class="st0" d="M-7791.5,2725l1.4,8.7c5.8-9.3,13.5-10.6,21.1-10.6c7.8,0,15.2,3,19.3,7.1l-8.4,16.1
		c-3.8-3.2-7.3-4.9-13.4-4.9c-9.7,0-18.7,5.2-18.7,19v39.6h-18.6v-75H-7791.5z"/>
	<path class="st0" d="M-7726.8,2769.1c1.2,9.3,9.3,16,22.4,16c6.8,0,15.8-2.6,20.1-7l11.9,11.7c-7.9,8.2-20.8,12.2-32.2,12.2
		c-25.9,0-41.2-16-41.2-40c0-22.8,15.5-39.2,39.9-39.2c25.1,0,40.8,15.5,37.9,46.4H-7726.8z M-7686.1,2753.8
		c-1.2-9.7-8.8-14.6-19.5-14.6c-10,0-18.3,4.9-21,14.6H-7686.1z"/>
	<path class="st0" d="M-7594.5,2725h17.8v75h-17.5l-0.9-11c-4.3,8.8-16,13.1-24.3,13.2c-22.2,0.2-38.6-13.5-38.6-39.9
		c0-25.9,17.2-39.4,39.1-39.2c10,0,19.6,4.7,23.9,12.2L-7594.5,2725z M-7639.5,2762.4c0,14.3,9.9,22.8,22.2,22.8
		c29.2,0,29.2-45.5,0-45.5C-7629.6,2739.8-7639.5,2748.1-7639.5,2762.4z"/>
	<path class="st0" d="M-7542.6,2693.7V2800h-18.4v-106.3H-7542.6z"/>
	<path class="st0" d="M-7510.5,2769.1c1.2,9.3,9.3,16,22.4,16c6.8,0,15.8-2.6,20.1-7l11.9,11.7c-7.9,8.2-20.8,12.2-32.2,12.2
		c-25.9,0-41.2-16-41.2-40c0-22.8,15.5-39.2,39.9-39.2c25.1,0,40.8,15.5,37.9,46.4H-7510.5z M-7469.8,2753.8
		c-1.2-9.7-8.8-14.6-19.5-14.6c-10,0-18.3,4.9-21,14.6H-7469.8z"/>
	<path class="st0" d="M-7388.7,2744.9c-5.3-5-11.4-6.7-18.6-6.7c-8.8,0-13.7,2.7-13.7,7.5c0,4.9,4.4,7.6,14,8.2
		c14.1,0.9,32.1,4.1,32.1,24c0,13.2-10.8,24.6-32.2,24.6c-11.9,0-23.7-2-34.7-13.4l9.1-13.2c5.3,5.9,17.5,10.3,25.9,10.5
		c7,0.2,13.5-3.5,13.5-9c0-5.2-4.3-7.3-14.9-7.9c-14.1-1.1-31-6.2-31-23.3c0-17.3,17.9-23.4,31.6-23.4c11.7,0,20.5,2.3,29.2,9.9
		L-7388.7,2744.9z"/>
</g>
<path class="st2" d="M-8177.9,2201c-14.2,0-27.6-5.5-37.7-15.6c-10.1-10.1-15.6-23.5-15.6-37.7V1949c0-14.2,5.5-27.6,15.6-37.7
	l132.2-132.2c20.8-20.8,54.6-20.8,75.4,0l132.2,132.2c9.9,9.9,15.4,23,15.6,36.9c0,0.2,0,49.5,0,49.7l-25,0c0-0.2,0-49.4,0-49.6
	c-0.2-7.3-3.1-14.2-8.3-19.4l-132.2-132.2c-11-11-29-11-40,0l-132.2,132.2c-5.3,5.3-8.3,12.5-8.3,20v198.7c0,7.6,2.9,14.7,8.3,20
	c5.3,5.3,12.5,8.3,20,8.3c0,0,0,0,0,0l264.5-0.1c7.6,0,14.7-2.9,20-8.3c5.3-5.3,8.3-12.5,8.3-20l25,0c0,14.2-5.5,27.6-15.6,37.7
	c-10.1,10.1-23.5,15.6-37.7,15.6L-8177.9,2201C-8177.9,2201-8177.9,2201-8177.9,2201z"/>
<path class="st2" d="M-8045.6,1918c-22.6,0-40.9-18.4-40.9-40.9c0-22.6,18.4-40.9,40.9-40.9s40.9,18.4,40.9,40.9
	C-8004.7,1899.7-8023.1,1918-8045.6,1918z M-8045.6,1858.2c-10.4,0-18.9,8.5-18.9,18.9c0,10.4,8.5,18.9,18.9,18.9
	s18.9-8.5,18.9-18.9C-8026.7,1866.7-8035.2,1858.2-8045.6,1858.2z"/>
<g>
	<g>
		<path class="st0" d="M-8482.9,1828.1c0-13.6-11.1-24.7-24.8-24.7c-13.7,0-24.8,11-24.8,24.5c0,12.1,9.3,22.3,20.3,22.3
			c1.3,0,2.7-0.2,4.1-0.5l4.2-1l-15.7,28.1h13.2c3.7-6.6,6.9-12.2,9.5-16.7C-8484.8,1838.8-8482.9,1835.6-8482.9,1828.1z
			 M-8507.8,1841.4c-7.2,0-13.3-6.1-13.3-13.3c0-7.4,6-13.3,13.3-13.3c7.2,0,13.3,6.1,13.3,13.3
			C-8494.5,1835.4-8500.6,1841.4-8507.8,1841.4z"/>
	</g>
	<g>
		<path class="st0" d="M-8423,1828.1c0-13.6-11.1-24.7-24.8-24.7c-13.7,0-24.8,11-24.8,24.5c0,12.1,9.3,22.3,20.3,22.3
			c1.3,0,2.7-0.2,4.1-0.5l4.2-1l-15.7,28.1h13.2c3.7-6.6,6.9-12.2,9.5-16.7C-8424.8,1838.8-8423,1835.6-8423,1828.1z
			 M-8447.8,1841.4c-7.2,0-13.3-6.1-13.3-13.3c0-7.4,6-13.3,13.3-13.3c7.2,0,13.3,6.1,13.3,13.3
			C-8434.5,1835.4-8440.6,1841.4-8447.8,1841.4z"/>
	</g>
</g>
<path class="st2" d="M-8534.3,1895.7c-5.9,0-11.4-2.3-15.6-6.5c-4.2-4.2-6.5-9.7-6.5-15.6v-82.2c0-5.9,2.3-11.4,6.5-15.6l54.7-54.7
	c8.6-8.6,22.6-8.6,31.2,0l54.7,54.7c4.1,4.1,6.4,9.5,6.5,15.3c0,0.1,0,20.5,0,20.6l-10.3,0c0-0.1,0-20.4,0-20.5
	c-0.1-3-1.3-5.9-3.4-8l-54.7-54.7c-4.6-4.6-12-4.6-16.6,0l-54.7,54.7c-2.2,2.2-3.4,5.2-3.4,8.3v82.2c0,3.1,1.2,6.1,3.4,8.3
	c2.2,2.2,5.2,3.4,8.3,3.4c0,0,0,0,0,0l109.4,0c3.1,0,6.1-1.2,8.3-3.4c2.2-2.2,3.4-5.2,3.4-8.3l10.3,0c0,5.9-2.3,11.4-6.5,15.6
	c-4.2,4.2-9.7,6.5-15.6,6.5L-8534.3,1895.7C-8534.3,1895.7-8534.3,1895.7-8534.3,1895.7z"/>
<path class="st2" d="M-8479.6,1778.7c-9.3,0-16.9-7.6-16.9-16.9c0-9.3,7.6-16.9,16.9-16.9s16.9,7.6,16.9,16.9
	C-8462.7,1771.1-8470.3,1778.7-8479.6,1778.7z M-8479.6,1753.9c-4.3,0-7.8,3.5-7.8,7.8c0,4.3,3.5,7.8,7.8,7.8s7.8-3.5,7.8-7.8
	C-8471.8,1757.5-8475.3,1753.9-8479.6,1753.9z"/>
<path class="st2" d="M-7827.9,2792.7c0,5.9-2.3,11.4-6.5,15.6c-4.2,4.2-9.7,6.5-15.6,6.5l-109.4,0c0,0,0,0,0,0
	c-5.9,0-11.4-2.3-15.6-6.5c-4.2-4.2-6.5-9.7-6.5-15.6v-96.2c0-5.9,2.3-11.4,6.5-15.6l54.7-54.7c8.6-8.6,22.6-8.6,31.2,0l54.7,54.7
	c4.1,4.1,6.4,9.5,6.5,15.3c0,0.1,0,34.5,0,34.6"/>
<g>
	<path class="st0" d="M-2271,4318.6c0-14.3-11.7-26-26.1-26c-14.4,0-26.1,11.6-26.1,25.8c0,12.7,9.8,23.5,21.4,23.5
		c1.4,0,2.9-0.2,4.3-0.5l4.4-1.1l-16.5,29.6h13.9c3.9-6.9,7.3-12.8,10-17.6C-2272.9,4329.8-2271,4326.4-2271,4318.6z
		 M-2297.1,4332.6c-7.6,0-14-6.4-14-14c0-7.7,6.3-14,14-14c7.6,0,14,6.4,14,14C-2283.1,4326.2-2289.5,4332.6-2297.1,4332.6z"/>
</g>
<g>
	<path class="st0" d="M-2207.9,4318.6c0-14.3-11.7-26-26.1-26c-14.4,0-26.1,11.6-26.1,25.8c0,12.7,9.8,23.5,21.4,23.5
		c1.4,0,2.9-0.2,4.3-0.5l4.4-1.1l-16.5,29.6h13.9c3.9-6.9,7.3-12.8,10-17.6C-2209.9,4329.8-2207.9,4326.4-2207.9,4318.6z
		 M-2234.1,4332.6c-7.6,0-14-6.4-14-14c0-7.7,6.3-14,14-14c7.6,0,14,6.4,14,14C-2220,4326.2-2226.4,4332.6-2234.1,4332.6z"/>
</g>
<path class="st2" d="M-2324.2,4389.7c-6.2,0-12-2.4-16.4-6.8c-4.4-4.4-6.8-10.2-6.8-16.4v-66c0-6.2,2.4-12,6.8-16.4l57.6-57.6
	c9-9,23.8-9,32.8,0l57.6,57.6c4.4,4.4,6.8,10.2,6.8,16.4l-10.9,0c0-3.3-1.3-6.4-3.6-8.7l-57.6-57.6c-4.8-4.8-12.6-4.8-17.4,0
	l-57.6,57.6c-2.3,2.3-3.6,5.4-3.6,8.7v66c0,3.3,1.3,6.4,3.6,8.7c2.3,2.3,5.4,3.6,8.7,3.6c0,0,0,0,0,0l115.1,0c3.3,0,6.4-1.3,8.7-3.6
	c2.3-2.3,3.6-5.4,3.6-8.7l10.9,0c0,6.2-2.4,12-6.8,16.4c-4.4,4.4-10.2,6.8-16.4,6.8L-2324.2,4389.7
	C-2324.2,4389.7-2324.2,4389.7-2324.2,4389.7z"/>
<path class="st2" d="M-2266.6,4283.6c-9.8,0-17.8-8-17.8-17.8s8-17.8,17.8-17.8c9.8,0,17.8,8,17.8,17.8
	S-2256.8,4283.6-2266.6,4283.6z M-2266.6,4257.5c-4.5,0-8.2,3.7-8.2,8.2s3.7,8.2,8.2,8.2s8.2-3.7,8.2-8.2
	S-2262.1,4257.5-2266.6,4257.5z"/>
<rect x="-4087.9" y="3628" class="st2" width="396" height="396"/>
<g>
	<g>
		<path class="st3" d="M-7911.9,2742.3c0-16.1-13.2-29.3-29.4-29.3c-16.2,0-29.4,13-29.4,29.1c0,14.3,11,26.4,24,26.4
			c1.6,0,3.2-0.2,4.8-0.6l4.9-1.2l-18.5,33.3h15.6c4.4-7.8,8.2-14.4,11.3-19.8C-7914.1,2755-7911.9,2751.1-7911.9,2742.3z
			 M-7941.3,2758.1c-8.5,0-15.7-7.2-15.7-15.7c0-8.7,7.1-15.8,15.7-15.8c8.6,0,15.8,7.2,15.8,15.8
			C-7925.5,2750.9-7932.8,2758.1-7941.3,2758.1z"/>
	</g>
	<g>
		<path class="st3" d="M-7840.9,2742.3c0-16.1-13.2-29.3-29.4-29.3c-16.2,0-29.4,13-29.4,29.1c0,14.3,11,26.4,24,26.4
			c1.6,0,3.2-0.2,4.8-0.6l4.9-1.2l-18.5,33.3h15.6c4.4-7.8,8.2-14.4,11.3-19.8C-7843.1,2755-7840.9,2751.1-7840.9,2742.3z
			 M-7870.3,2758.1c-8.5,0-15.7-7.2-15.7-15.7c0-8.7,7.1-15.8,15.7-15.8c8.6,0,15.8,7.2,15.8,15.8
			C-7854.5,2750.9-7861.8,2758.1-7870.3,2758.1z"/>
	</g>
</g>
<path class="st3" d="M-7842.2,2696.4"/>
<path class="st3" d="M-7904.6,2674.9c-9.3,0-16.9-7.6-16.9-16.9c0-9.3,7.6-16.9,16.9-16.9c9.3,0,16.9,7.6,16.9,16.9
	C-7887.7,2667.3-7895.3,2674.9-7904.6,2674.9z M-7904.6,2650.1c-4.3,0-7.8,3.5-7.8,7.8c0,4.3,3.5,7.8,7.8,7.8c4.3,0,7.8-3.5,7.8-7.8
	C-7896.8,2653.6-7900.3,2650.1-7904.6,2650.1z"/>
<rect x="-3283.9" y="-1063" class="st0" width="2000" height="2000"/>
<g>
	<path class="st3" d="M-4312.5-486l1.4,8.7c5.8-9.3,13.5-10.6,21.1-10.6c7.8,0,15.2,3,19.3,7.1l-8.4,16.1c-3.8-3.2-7.3-4.9-13.4-4.9
		c-9.7,0-18.7,5.2-18.7,19v39.6h-18.6v-75H-4312.5z"/>
	<path class="st3" d="M-4247.8-441.9c1.2,9.3,9.3,16,22.4,16c6.8,0,15.8-2.6,20.1-7l11.9,11.7c-7.9,8.2-20.8,12.2-32.2,12.2
		c-25.9,0-41.2-16-41.2-40c0-22.8,15.5-39.2,39.9-39.2c25.1,0,40.8,15.5,37.9,46.4H-4247.8z M-4207.1-457.2
		c-1.2-9.7-8.8-14.6-19.5-14.6c-10,0-18.3,4.9-21,14.6H-4207.1z"/>
	<path class="st3" d="M-4115.5-486h17.8v75h-17.5l-0.9-11c-4.3,8.8-16,13.1-24.3,13.2c-22.2,0.2-38.6-13.5-38.6-39.9
		c0-25.9,17.2-39.4,39.1-39.2c10,0,19.6,4.7,23.9,12.2L-4115.5-486z M-4160.5-448.6c0,14.3,9.9,22.8,22.2,22.8
		c29.2,0,29.2-45.5,0-45.5C-4150.6-471.2-4160.5-462.9-4160.5-448.6z"/>
	<path class="st3" d="M-4063.6-517.3V-411h-18.4v-106.3H-4063.6z"/>
	<path class="st3" d="M-4031.5-441.9c1.2,9.3,9.3,16,22.4,16c6.8,0,15.8-2.6,20.1-7l11.9,11.7c-7.9,8.2-20.8,12.2-32.2,12.2
		c-25.9,0-41.2-16-41.2-40c0-22.8,15.5-39.2,39.9-39.2c25.1,0,40.8,15.5,37.9,46.4H-4031.5z M-3990.8-457.2
		c-1.2-9.7-8.8-14.6-19.5-14.6c-10,0-18.3,4.9-21,14.6H-3990.8z"/>
	<path class="st3" d="M-3909.7-466.1c-5.3-5-11.4-6.7-18.6-6.7c-8.8,0-13.7,2.7-13.7,7.5c0,4.9,4.4,7.6,14,8.2
		c14.1,0.9,32.1,4.1,32.1,24c0,13.2-10.8,24.6-32.2,24.6c-11.9,0-23.7-2-34.7-13.4l9.1-13.2c5.3,5.9,17.5,10.3,25.9,10.5
		c7,0.2,13.5-3.5,13.5-9c0-5.2-4.3-7.3-14.9-7.9c-14.1-1.1-31-6.2-31-23.3c0-17.3,17.9-23.4,31.6-23.4c11.7,0,20.5,2.3,29.2,9.9
		L-3909.7-466.1z"/>
</g>
<path class="st2" d="M-4342.9-521.8c-0.1-5.8-2.5-11.2-7-15.3l-59-54.7c-9.3-8.6-24.4-8.6-33.6,0l-59,54.7c-4.5,4.2-7,9.7-7,15.6
	v103.2c0,5.9,2.5,11.4,7,15.6c4.5,4.2,10.5,6.5,16.8,6.5c0,0,0,0,0,0l118,0c6.4,0,12.3-2.3,16.8-6.5c4.5-4.2,7-9.7,7-15.6
	L-4342.9-521.8z"/>
<g>
	<g>
		<path class="st3" d="M-4432.9-468.7c0-16.1-13.2-29.3-29.4-29.3c-16.2,0-29.4,13-29.4,29.1c0,14.3,11,26.4,24,26.4
			c1.6,0,3.2-0.2,4.8-0.6l4.9-1.2l-18.5,33.3h15.6c4.4-7.8,8.2-14.4,11.3-19.8C-4435.1-456-4432.9-459.9-4432.9-468.7z
			 M-4462.3-452.9c-8.5,0-15.7-7.2-15.7-15.7c0-8.7,7.1-15.8,15.7-15.8c8.6,0,15.8,7.2,15.8,15.8
			C-4446.5-460.1-4453.8-452.9-4462.3-452.9z"/>
	</g>
	<g>
		<path class="st3" d="M-4361.9-468.7c0-16.1-13.2-29.3-29.4-29.3c-16.2,0-29.4,13-29.4,29.1c0,14.3,11,26.4,24,26.4
			c1.6,0,3.2-0.2,4.8-0.6l4.9-1.2l-18.5,33.3h15.6c4.4-7.8,8.2-14.4,11.3-19.8C-4364.1-456-4361.9-459.9-4361.9-468.7z
			 M-4391.3-452.9c-8.5,0-15.7-7.2-15.7-15.7c0-8.7,7.1-15.8,15.7-15.8c8.6,0,15.8,7.2,15.8,15.8
			C-4375.5-460.1-4382.8-452.9-4391.3-452.9z"/>
	</g>
</g>
<path class="st3" d="M-4363.2-521.6"/>
<path class="st3" d="M-4425.6-543.1c-9.3,0-16.9-7.6-16.9-16.9c0-9.3,7.6-16.9,16.9-16.9c9.3,0,16.9,7.6,16.9,16.9
	C-4408.7-550.7-4416.3-543.1-4425.6-543.1z M-4425.6-567.9c-4.3,0-7.8,3.5-7.8,7.8c0,4.3,3.5,7.8,7.8,7.8c4.3,0,7.8-3.5,7.8-7.8
	C-4417.8-564.4-4421.3-567.9-4425.6-567.9z"/>
<g>
	<g>
		<path class="st3" d="M-2389.6-183.3l2.2,14c9.3-15,21.9-17.2,34.2-17.2c12.5,0,24.6,4.9,31.2,11.6l-13.5,26.1
			c-6.1-5.2-11.8-7.9-21.6-7.9c-15.7,0-30.3,8.4-30.3,30.7v64h-30v-121.3H-2389.6z"/>
		<path class="st3" d="M-2285.1-112c2,15,15,25.8,36.2,25.8c11.1,0,25.6-4.2,32.5-11.3l19.2,18.9c-12.8,13.3-33.7,19.7-52.2,19.7
			c-41.8,0-66.7-25.8-66.7-64.7c0-36.9,25.1-63.5,64.4-63.5c40.6,0,65.9,25.1,61.3,75H-2285.1z M-2219.1-136.8
			c-2-15.7-14.3-23.6-31.5-23.6c-16.2,0-29.5,7.9-33.9,23.6H-2219.1z"/>
		<path class="st3" d="M-2071.1-183.3h28.8v121.3h-28.3l-1.5-17.7c-6.9,14.3-25.8,21.2-39.4,21.4c-35.9,0.2-62.5-21.9-62.5-64.4
			c0-41.8,27.8-63.7,63.2-63.5c16.2,0,31.7,7.6,38.6,19.7L-2071.1-183.3z M-2143.9-122.8c0,23.1,16,36.9,35.9,36.9
			c47.2,0,47.2-73.6,0-73.6C-2127.9-159.5-2143.9-145.9-2143.9-122.8z"/>
		<path class="st3" d="M-1987.2-234v171.9h-29.8V-234H-1987.2z"/>
		<path class="st3" d="M-1935.3-112c2,15,15,25.8,36.2,25.8c11.1,0,25.6-4.2,32.5-11.3l19.2,18.9c-12.8,13.3-33.7,19.7-52.2,19.7
			c-41.8,0-66.7-25.8-66.7-64.7c0-36.9,25.1-63.5,64.4-63.5c40.6,0,65.9,25.1,61.3,75H-1935.3z M-1869.3-136.8
			c-2-15.7-14.3-23.6-31.5-23.6c-16.2,0-29.5,7.9-33.9,23.6H-1869.3z"/>
		<path class="st3" d="M-1738.2-151.1c-8.6-8.1-18.4-10.8-30-10.8c-14.3,0-22.1,4.4-22.1,12.1c0,7.9,7.1,12.3,22.6,13.3
			c22.9,1.5,51.9,6.6,51.9,38.9c0,21.4-17.5,39.9-52.1,39.9c-19.2,0-38.4-3.2-56.1-21.6l14.8-21.4c8.6,9.6,28.3,16.7,41.8,17
			c11.3,0.2,21.9-5.7,21.9-14.5c0-8.4-6.9-11.8-24.1-12.8c-22.9-1.7-50.2-10.1-50.2-37.6c0-28,29-37.9,51.2-37.9
			c18.9,0,33.2,3.7,47.2,16L-1738.2-151.1z"/>
	</g>
	<g>
		<path class="st2" d="M-2438.7-241.2c-0.1-9.3-4.1-18.1-11.3-24.7l-95.4-88.5c-15-13.9-39.4-13.9-54.4,0l-95.4,88.5
			c-7.3,6.7-11.3,15.7-11.3,25.2v166.9c0,9.5,4,18.5,11.3,25.2c7.3,6.7,16.9,10.4,27.2,10.4c0,0,0,0,0,0l190.8,0
			c10.3,0,19.9-3.7,27.2-10.5c7.3-6.7,11.3-15.7,11.3-25.2L-2438.7-241.2z"/>
		<path class="st3" d="M-2572.5-275.7c-15.1,0-27.4-12.3-27.4-27.4c0-15.1,12.3-27.4,27.4-27.4c15.1,0,27.4,12.3,27.4,27.4
			C-2545.2-288-2557.5-275.7-2572.5-275.7z M-2572.5-315.7c-7,0-12.6,5.7-12.6,12.6c0,7,5.7,12.6,12.6,12.6c7,0,12.6-5.7,12.6-12.6
			C-2559.9-310.1-2565.6-315.7-2572.5-315.7z"/>
		<g>
			<path class="st3" d="M-2578.9-179.5c0,21.2-8,27.1-50.8,101.2h-27l32.1-55.5c-4.6,1.7-9.4,2.5-14.2,2.5
				c-23.9,0-46.1-20.3-46.1-48.5c0-27.5,23.4-51.4,52.9-51.4C-2602.3-231.2-2578.9-207.1-2578.9-179.5z M-2602.6-179.4
				c0-15-13.4-28.3-29.5-28.3c-16.2,0-29.4,13.4-29.4,28.3c0,15.6,13.2,28.6,29.3,28.6C-2616-150.8-2602.6-163.8-2602.6-179.4z"/>
			<path class="st3" d="M-2458.3-179.5c0,21.2-8,27.1-50.8,101.2h-27l32.1-55.5c-4.6,1.7-9.4,2.5-14.2,2.5
				c-23.9,0-46.1-20.3-46.1-48.5c0-27.5,23.4-51.4,52.9-51.4C-2481.7-231.2-2458.3-207.1-2458.3-179.5z M-2482-179.4
				c0-15-13.4-28.3-29.5-28.3c-16.2,0-29.4,13.4-29.4,28.3c0,15.6,13.2,28.6,29.3,28.6C-2495.4-150.8-2482-163.8-2482-179.4z"/>
		</g>
	</g>
</g>
<g>
	<g>
		<path class="st2" d="M164.1,76.5c-0.1-5.6-2.5-10.9-6.8-14.9L99.8,8.3c-9-8.4-23.8-8.4-32.8,0L9.5,61.6c-4.4,4.1-6.8,9.5-6.8,15.2
			v100.6c0,5.7,2.4,11.1,6.8,15.2c4.4,4.1,10.2,6.3,16.4,6.3c0,0,0,0,0,0l115.1,0c6.2,0,12-2.2,16.4-6.3c4.4-4.1,6.8-9.5,6.8-15.2
			L164.1,76.5z"/>
		<path class="st3" d="M83.4,55.7c-9.1,0-16.5-7.4-16.5-16.5c0-9.1,7.4-16.5,16.5-16.5s16.5,7.4,16.5,16.5
			C99.9,48.3,92.5,55.7,83.4,55.7z M83.4,31.6c-4.2,0-7.6,3.4-7.6,7.6c0,4.2,3.4,7.6,7.6,7.6s7.6-3.4,7.6-7.6
			C91,35,87.6,31.6,83.4,31.6z"/>
		<g>
			<path class="st3" d="M79.6,113.8c0,12.8-4.9,16.4-30.6,61H32.6L52,141.4c-2.8,1-5.7,1.5-8.6,1.5c-14.4,0-27.8-12.2-27.8-29.3
				c0-16.6,14.1-31,31.9-31C65.5,82.6,79.6,97.1,79.6,113.8z M65.3,113.8c0-9-8.1-17.1-17.8-17.1c-9.8,0-17.7,8.1-17.7,17.1
				c0,9.4,8,17.3,17.7,17.3C57.2,131.1,65.3,123.3,65.3,113.8z"/>
			<path class="st3" d="M152.3,113.8c0,12.8-4.9,16.4-30.6,61h-16.3l19.4-33.5c-2.8,1-5.7,1.5-8.6,1.5c-14.4,0-27.8-12.2-27.8-29.3
				c0-16.6,14.1-31,31.9-31C138.2,82.6,152.3,97.1,152.3,113.8z M138,113.8c0-9-8.1-17.1-17.8-17.1c-9.8,0-17.7,8.1-17.7,17.1
				c0,9.4,8,17.3,17.7,17.3C130,131.1,138,123.3,138,113.8z"/>
		</g>
	</g>
</g>
<g>
	<g>
		<path class="st0" d="M22.8-195l0.7,4.2c2.8-4.5,6.6-5.2,10.4-5.2c3.8,0,7.5,1.5,9.5,3.5l-4.1,7.9c-1.9-1.6-3.6-2.4-6.6-2.4
			c-4.8,0-9.2,2.5-9.2,9.3v19.4h-9.1V-195H22.8z"/>
		<path class="st0" d="M54.5-173.4c0.6,4.5,4.5,7.8,11,7.8c3.4,0,7.7-1.3,9.8-3.4l5.8,5.7c-3.9,4-10.2,6-15.8,6
			c-12.7,0-20.2-7.8-20.2-19.6c0-11.2,7.6-19.2,19.5-19.2c12.3,0,20,7.6,18.6,22.7H54.5z M74.5-180.9c-0.6-4.8-4.3-7.2-9.5-7.2
			c-4.9,0-8.9,2.4-10.3,7.2H74.5z"/>
		<path class="st0" d="M119.3-195h8.7v36.7h-8.6l-0.4-5.4c-2.1,4.3-7.8,6.4-11.9,6.5c-10.9,0.1-18.9-6.6-18.9-19.5
			c0-12.7,8.4-19.3,19.1-19.2c4.9,0,9.6,2.3,11.7,6L119.3-195z M97.3-176.7c0,7,4.8,11.2,10.9,11.2c14.3,0,14.3-22.3,0-22.3
			C102.1-187.8,97.3-183.7,97.3-176.7z"/>
		<path class="st0" d="M144.7-210.4v52.1h-9v-52.1H144.7z"/>
		<path class="st0" d="M160.4-173.4c0.6,4.5,4.5,7.8,11,7.8c3.4,0,7.7-1.3,9.8-3.4l5.8,5.7c-3.9,4-10.2,6-15.8,6
			c-12.7,0-20.2-7.8-20.2-19.6c0-11.2,7.6-19.2,19.5-19.2c12.3,0,20,7.6,18.6,22.7H160.4z M180.4-180.9c-0.6-4.8-4.3-7.2-9.5-7.2
			c-4.9,0-8.9,2.4-10.3,7.2H180.4z"/>
		<path class="st0" d="M220.1-185.2c-2.6-2.5-5.6-3.3-9.1-3.3c-4.3,0-6.7,1.3-6.7,3.7c0,2.4,2.2,3.7,6.9,4c6.9,0.4,15.7,2,15.7,11.8
			c0,6.5-5.3,12.1-15.8,12.1c-5.8,0-11.6-1-17-6.6l4.5-6.5c2.6,2.9,8.6,5.1,12.7,5.1c3.4,0.1,6.6-1.7,6.6-4.4c0-2.5-2.1-3.6-7.3-3.9
			c-6.9-0.5-15.2-3.1-15.2-11.4c0-8.5,8.8-11.5,15.5-11.5c5.7,0,10.1,1.1,14.3,4.8L220.1-185.2z"/>
	</g>
	<g>
		<path class="st2" d="M7.9-212.5c0-2.8-1.2-5.5-3.4-7.5l-28.9-26.8c-4.5-4.2-11.9-4.2-16.5,0L-69.7-220c-2.2,2-3.4,4.8-3.4,7.6
			v50.5c0,2.9,1.2,5.6,3.4,7.6c2.2,2,5.1,3.2,8.2,3.2c0,0,0,0,0,0l57.8,0c3.1,0,6-1.1,8.2-3.2c2.2-2,3.4-4.8,3.4-7.6L7.9-212.5z"/>
		<path class="st3" d="M-32.6-223c-4.6,0-8.3-3.7-8.3-8.3c0-4.6,3.7-8.3,8.3-8.3s8.3,3.7,8.3,8.3C-24.3-226.7-28-223-32.6-223z
			 M-32.6-235.1c-2.1,0-3.8,1.7-3.8,3.8c0,2.1,1.7,3.8,3.8,3.8s3.8-1.7,3.8-3.8C-28.8-233.4-30.5-235.1-32.6-235.1z"/>
		<g>
			<path class="st3" d="M-34.5-193.8c0,6.4-2.4,8.2-15.4,30.7h-8.2l9.7-16.8c-1.4,0.5-2.9,0.8-4.3,0.8c-7.2,0-14-6.1-14-14.7
				c0-8.3,7.1-15.6,16-15.6C-41.6-209.5-34.5-202.2-34.5-193.8z M-41.7-193.8c0-4.5-4.1-8.6-8.9-8.6c-4.9,0-8.9,4.1-8.9,8.6
				c0,4.7,4,8.7,8.9,8.7C-45.7-185.1-41.7-189.1-41.7-193.8z"/>
			<path class="st3" d="M2-193.8c0,6.4-2.4,8.2-15.4,30.7h-8.2l9.7-16.8c-1.4,0.5-2.9,0.8-4.3,0.8c-7.2,0-14-6.1-14-14.7
				c0-8.3,7.1-15.6,16-15.6C-5.1-209.5,2-202.2,2-193.8z M-5.2-193.8c0-4.5-4.1-8.6-8.9-8.6c-4.9,0-8.9,4.1-8.9,8.6
				c0,4.7,4,8.7,8.9,8.7C-9.2-185.1-5.2-189.1-5.2-193.8z"/>
		</g>
	</g>
</g>
<g>
	<g>
		<path class="st0" d="M-2352.6,2091.9l2.2,14c9.3-15,21.9-17.2,34.2-17.2c12.5,0,24.6,4.9,31.2,11.6l-13.5,26.1
			c-6.1-5.2-11.8-7.9-21.6-7.9c-15.7,0-30.3,8.4-30.3,30.7v64h-30v-121.3H-2352.6z"/>
		<path class="st0" d="M-2248.1,2163.2c2,15,15,25.8,36.2,25.8c11.1,0,25.6-4.2,32.5-11.3l19.2,18.9c-12.8,13.3-33.7,19.7-52.2,19.7
			c-41.8,0-66.7-25.8-66.7-64.7c0-36.9,25.1-63.5,64.4-63.5c40.6,0,65.9,25.1,61.3,75H-2248.1z M-2182.1,2138.4
			c-2-15.7-14.3-23.6-31.5-23.6c-16.2,0-29.5,7.9-33.9,23.6H-2182.1z"/>
		<path class="st0" d="M-2034.1,2091.9h28.8v121.3h-28.3l-1.5-17.7c-6.9,14.3-25.8,21.2-39.4,21.4c-35.9,0.2-62.5-21.9-62.5-64.4
			c0-41.8,27.8-63.7,63.2-63.5c16.2,0,31.7,7.6,38.6,19.7L-2034.1,2091.9z M-2106.9,2152.4c0,23.1,16,36.9,35.9,36.9
			c47.2,0,47.2-73.6,0-73.6C-2090.9,2115.8-2106.9,2129.3-2106.9,2152.4z"/>
		<path class="st0" d="M-1950.2,2041.2v171.9h-29.8v-171.9H-1950.2z"/>
		<path class="st0" d="M-1898.3,2163.2c2,15,15,25.8,36.2,25.8c11.1,0,25.6-4.2,32.5-11.3l19.2,18.9c-12.8,13.3-33.7,19.7-52.2,19.7
			c-41.8,0-66.7-25.8-66.7-64.7c0-36.9,25.1-63.5,64.4-63.5c40.6,0,65.9,25.1,61.3,75H-1898.3z M-1832.3,2138.4
			c-2-15.7-14.3-23.6-31.5-23.6c-16.2,0-29.5,7.9-33.9,23.6H-1832.3z"/>
		<path class="st0" d="M-1701.2,2124.1c-8.6-8.1-18.4-10.8-30-10.8c-14.3,0-22.1,4.4-22.1,12.1c0,7.9,7.1,12.3,22.6,13.3
			c22.9,1.5,51.9,6.6,51.9,38.9c0,21.4-17.5,39.9-52.1,39.9c-19.2,0-38.4-3.2-56.1-21.6l14.8-21.4c8.6,9.6,28.3,16.7,41.8,17
			c11.3,0.2,21.9-5.7,21.9-14.5c0-8.4-6.9-11.8-24.1-12.8c-22.9-1.7-50.2-10.1-50.2-37.6c0-28,29-37.9,51.2-37.9
			c18.9,0,33.2,3.7,47.2,16L-1701.2,2124.1z"/>
	</g>
	<g>
		<path class="st2" d="M-2401.7,2034c-0.1-9.3-4.1-18.1-11.3-24.7l-95.4-88.5c-15-13.9-39.4-13.9-54.4,0l-95.4,88.5
			c-7.3,6.7-11.3,15.7-11.3,25.2v166.9c0,9.5,4,18.5,11.3,25.2c7.3,6.7,16.9,10.4,27.2,10.4c0,0,0,0,0,0l190.8,0
			c10.3,0,19.9-3.7,27.2-10.5c7.3-6.7,11.3-15.7,11.3-25.2L-2401.7,2034z"/>
		<path class="st3" d="M-2535.5,1999.5c-15.1,0-27.4-12.3-27.4-27.4c0-15.1,12.3-27.4,27.4-27.4c15.1,0,27.4,12.3,27.4,27.4
			C-2508.2,1987.2-2520.5,1999.5-2535.5,1999.5z M-2535.5,1959.5c-7,0-12.6,5.7-12.6,12.6c0,7,5.7,12.6,12.6,12.6
			c7,0,12.6-5.7,12.6-12.6C-2522.9,1965.2-2528.6,1959.5-2535.5,1959.5z"/>
		<g>
			<path class="st3" d="M-2541.9,2095.8c0,21.2-8,27.1-50.8,101.2h-27l32.1-55.5c-4.6,1.7-9.4,2.5-14.2,2.5
				c-23.9,0-46.1-20.3-46.1-48.5c0-27.5,23.4-51.4,52.9-51.4C-2565.3,2044-2541.9,2068.2-2541.9,2095.8z M-2565.6,2095.8
				c0-15-13.4-28.3-29.5-28.3c-16.2,0-29.4,13.4-29.4,28.3c0,15.6,13.2,28.6,29.3,28.6C-2579,2124.5-2565.6,2111.5-2565.6,2095.8z"
				/>
			<path class="st3" d="M-2421.3,2095.8c0,21.2-8,27.1-50.8,101.2h-27l32.1-55.5c-4.6,1.7-9.4,2.5-14.2,2.5
				c-23.9,0-46.1-20.3-46.1-48.5c0-27.5,23.4-51.4,52.9-51.4C-2444.7,2044-2421.3,2068.2-2421.3,2095.8z M-2445,2095.8
				c0-15-13.4-28.3-29.5-28.3c-16.2,0-29.4,13.4-29.4,28.3c0,15.6,13.2,28.6,29.3,28.6C-2458.4,2124.5-2445,2111.5-2445,2095.8z"/>
		</g>
	</g>
</g>
<path class="st2" d="M-2156.1,250.2c-0.1-3.9-1.7-7.5-4.7-10.2l-39.4-36.6c-6.2-5.7-16.3-5.7-22.5,0l-39.4,36.6
	c-3,2.8-4.7,6.5-4.7,10.4v69c0,3.9,1.7,7.6,4.7,10.4c3,2.8,7,4.3,11.2,4.3c0,0,0,0,0,0l78.9,0c4.2,0,8.2-1.5,11.2-4.3
	c3-2.8,4.7-6.5,4.7-10.4L-2156.1,250.2z"/>
<path class="st3" d="M-2211.4,235.9c-6.2,0-11.3-5.1-11.3-11.3c0-6.2,5.1-11.3,11.3-11.3c6.2,0,11.3,5.1,11.3,11.3
	C-2200.1,230.8-2205.2,235.9-2211.4,235.9z M-2211.4,219.3c-2.9,0-5.2,2.3-5.2,5.2c0,2.9,2.3,5.2,5.2,5.2s5.2-2.3,5.2-5.2
	C-2206.2,221.7-2208.5,219.3-2211.4,219.3z"/>
<g>
	<path class="st3" d="M-2214.1,275.7c0,8.8-3.3,11.2-21,41.9h-11.2l13.3-22.9c-1.9,0.7-3.9,1-5.9,1c-9.9,0-19.1-8.4-19.1-20.1
		c0-11.4,9.7-21.3,21.9-21.3C-2223.7,254.3-2214.1,264.3-2214.1,275.7z M-2223.9,275.7c0-6.2-5.5-11.7-12.2-11.7
		c-6.7,0-12.1,5.5-12.1,11.7c0,6.5,5.5,11.8,12.1,11.8C-2229.4,287.6-2223.9,282.2-2223.9,275.7z"/>
	<path class="st3" d="M-2164.2,275.7c0,8.8-3.3,11.2-21,41.9h-11.2l13.3-22.9c-1.9,0.7-3.9,1-5.9,1c-9.9,0-19.1-8.4-19.1-20.1
		c0-11.4,9.7-21.3,21.9-21.3C-2173.9,254.3-2164.2,264.3-2164.2,275.7z M-2174,275.7c0-6.2-5.5-11.7-12.2-11.7
		c-6.7,0-12.1,5.5-12.1,11.7c0,6.5,5.5,11.8,12.1,11.8C-2179.5,287.6-2174,282.2-2174,275.7z"/>
</g>
</svg>
