<?xml version="1.0" encoding="utf-8"?>
<!-- Generator: Adobe Illustrator 22.0.0, SVG Export Plug-In . SVG Version: 6.00 Build 0)  -->
<svg version="1.1" id="Capa_1" xmlns="http://www.w3.org/2000/svg" xmlns:xlink="http://www.w3.org/1999/xlink" x="0px" y="0px"
	 viewBox="0 0 303.3 102.1" style="enable-background:new 0 0 303.3 102.1;" xml:space="preserve">
<style type="text/css">
	.st0{fill:#2D2D2D;}
	.st1{fill:#2D2D2D;stroke:#FFFFFF;stroke-width:9;stroke-miterlimit:10;}
	.st2{fill:#FD5631;}
	.st3{fill:#FFFFFF;}
	.st4{fill:none;stroke:#2D2D2D;stroke-width:14;stroke-miterlimit:10;}
	.st5{fill:none;stroke:#2D2D2D;stroke-width:25;stroke-miterlimit:10;}
</style>
<g>
	<path class="st0" d="M-6511.3,4338.8c0,23.5-6.9,30.4-58.8,122.3h-42.2l36.5-65.6c-3.6,0.9-7.3,1.4-10.9,1.4
		c-28,0-53.6-25.6-53.6-58.5c0-34.6,28.3-63.8,64.5-63.8C-6539.4,4274.5-6511.3,4304-6511.3,4338.8z M-6548.1,4338.9
		c0-15-12.6-27.8-27.8-27.8c-15.2,0-27.6,12.7-27.6,27.8c0,14.9,12.5,27.6,27.6,27.6C-6560.7,4366.6-6548.1,4353.9-6548.1,4338.9z"
		/>
	<path class="st0" d="M-6366.3,4338.8c0,23.5-6.9,30.4-58.8,122.3h-42.2l36.5-65.6c-3.6,0.9-7.3,1.4-10.9,1.4
		c-28,0-53.6-25.6-53.6-58.5c0-34.6,28.3-63.8,64.5-63.8C-6394.4,4274.5-6366.3,4304-6366.3,4338.8z M-6403.2,4338.9
		c0-15-12.6-27.8-27.8-27.8c-15.2,0-27.6,12.7-27.6,27.8c0,14.9,12.5,27.6,27.6,27.6C-6415.8,4366.6-6403.2,4353.9-6403.2,4338.9z"
		/>
</g>
<g>
	<path class="st0" d="M-6323.8,4345.4l2.1,13.5c9-14.5,21.1-16.6,33-16.6c12.1,0,23.8,4.8,30.2,11.2l-13.1,25.2
		c-5.9-5-11.4-7.6-20.9-7.6c-15.2,0-29.2,8.1-29.2,29.7v61.8h-29v-117.1H-6323.8z"/>
	<path class="st0" d="M-6222.8,4414.3c1.9,14.5,14.5,25,34.9,25c10.7,0,24.7-4,31.4-10.9l18.5,18.3c-12.4,12.8-32.6,19-50.4,19
		c-40.4,0-64.4-24.9-64.4-62.5c0-35.6,24.2-61.3,62.3-61.3c39.2,0,63.7,24.2,59.2,72.5H-6222.8z M-6159.2,4390.3
		c-1.9-15.2-13.8-22.8-30.4-22.8c-15.7,0-28.5,7.6-32.8,22.8H-6159.2z"/>
	<path class="st0" d="M-6016.1,4345.4h27.8v117.1h-27.3l-1.4-17.1c-6.7,13.8-24.9,20.4-38,20.7c-34.7,0.2-60.4-21.1-60.4-62.3
		c0-40.4,26.9-61.5,61.1-61.3c15.7,0,30.7,7.4,37.3,19L-6016.1,4345.4z M-6086.4,4403.8c0,22.3,15.4,35.6,34.7,35.6
		c45.6,0,45.6-71,0-71C-6071,4368.4-6086.4,4381.5-6086.4,4403.8z"/>
	<path class="st0" d="M-5935.1,4296.4v166.1h-28.8v-166.1H-5935.1z"/>
	<path class="st0" d="M-5885,4414.3c1.9,14.5,14.5,25,34.9,25c10.7,0,24.7-4,31.4-10.9l18.5,18.3c-12.4,12.8-32.6,19-50.4,19
		c-40.4,0-64.4-24.9-64.4-62.5c0-35.6,24.2-61.3,62.3-61.3c39.2,0,63.7,24.2,59.2,72.5H-5885z M-5821.3,4390.3
		c-1.9-15.2-13.8-22.8-30.4-22.8c-15.7,0-28.5,7.6-32.8,22.8H-5821.3z"/>
	<path class="st0" d="M-5694.6,4376.5c-8.3-7.8-17.8-10.5-29-10.5c-13.8,0-21.4,4.3-21.4,11.6c0,7.6,6.9,11.9,21.9,12.8
		c22.1,1.4,50.1,6.4,50.1,37.5c0,20.7-16.9,38.5-50.4,38.5c-18.5,0-37.1-3.1-54.2-20.9l14.3-20.7c8.3,9.3,27.3,16.2,40.4,16.4
		c10.9,0.2,21.1-5.5,21.1-14c0-8.1-6.7-11.4-23.3-12.4c-22.1-1.7-48.5-9.7-48.5-36.4c0-27.1,28-36.6,49.4-36.6
		c18.3,0,32.1,3.6,45.6,15.4L-5694.6,4376.5z"/>
</g>
<g>
	<g>
		<path class="st0" d="M-2564.8,4141.8c0-33-26.9-59.8-60-59.8c-33.1,0-60,26.6-60,59.3c0,29.3,22.5,54,49.1,54
			c3.3,0,6.6-0.4,9.8-1.2l10.1-2.5l-37.8,68h31.9c9-15.9,16.8-29.5,23-40.5C-2569.3,4167.7-2564.8,4159.8-2564.8,4141.8z
			 M-2624.9,4174.1c-17.4,0-32.1-14.7-32.1-32.1c0-17.8,14.4-32.3,32.1-32.3c17.5,0,32.3,14.8,32.3,32.3
			C-2592.6,4159.3-2607.4,4174.1-2624.9,4174.1z"/>
	</g>
	<g>
		<path class="st0" d="M-2419.8,4141.8c0-33-26.9-59.8-60-59.8s-60,26.6-60,59.3c0,29.3,22.5,54,49.1,54c3.3,0,6.6-0.4,9.8-1.2
			l10.1-2.5l-37.8,68h31.9c9-15.9,16.7-29.5,23-40.5C-2424.3,4167.7-2419.8,4159.8-2419.8,4141.8z M-2479.9,4174.1
			c-17.4,0-32.1-14.7-32.1-32.1c0-17.8,14.4-32.3,32.1-32.3c17.5,0,32.3,14.8,32.3,32.3C-2447.7,4159.3-2462.5,4174.1-2479.9,4174.1
			z"/>
	</g>
</g>
<g>
	<path class="st1" d="M-3452.3,4141.5c0,23.6-6.9,30.4-58.8,122.3h-42.2l36.5-65.6c-3.6,0.9-7.3,1.4-10.9,1.4
		c-28,0-53.6-25.6-53.6-58.5c0-34.6,28.3-63.8,64.5-63.8C-3480.4,4077.2-3452.3,4106.7-3452.3,4141.5z M-3489.1,4141.6
		c0-15-12.6-27.8-27.8-27.8c-15.2,0-27.6,12.7-27.6,27.8c0,14.9,12.5,27.6,27.6,27.6C-3501.7,4169.3-3489.1,4156.6-3489.1,4141.6z"
		/>
	<path class="st1" d="M-3307.3,4141.5c0,23.6-6.9,30.4-58.8,122.3h-42.2l36.5-65.6c-3.6,0.9-7.3,1.4-10.9,1.4
		c-28,0-53.6-25.6-53.6-58.5c0-34.6,28.3-63.8,64.5-63.8C-3335.4,4077.2-3307.3,4106.7-3307.3,4141.5z M-3344.2,4141.6
		c0-15-12.6-27.8-27.8-27.8c-15.2,0-27.6,12.7-27.6,27.8c0,14.9,12.5,27.6,27.6,27.6C-3356.8,4169.3-3344.2,4156.6-3344.2,4141.6z"
		/>
</g>
<g>
	<path class="st0" d="M-2366.4,4115.2l2.3,14.4c9.6-15.4,22.4-17.6,35-17.6c12.8,0,25.2,5,32,11.8l-13.8,26.7
		c-6.3-5.3-12.1-8.1-22.2-8.1c-16.1,0-31,8.6-31,31.5v65.5h-30.7v-124.1H-2366.4z"/>
	<path class="st0" d="M-2259.4,4188.2c2,15.4,15.4,26.4,37,26.4c11.3,0,26.2-4.3,33.2-11.6l19.6,19.4
		c-13.1,13.6-34.5,20.1-53.4,20.1c-42.8,0-68.2-26.4-68.2-66.2c0-37.8,25.7-65,66-65c41.5,0,67.5,25.7,62.7,76.8H-2259.4z
		 M-2191.9,4162.8c-2-16.1-14.6-24.2-32.2-24.2c-16.6,0-30.2,8.1-34.7,24.2H-2191.9z"/>
	<path class="st0" d="M-2040.4,4115.2h29.5v124.1h-29l-1.5-18.1c-7,14.6-26.4,21.7-40.3,21.9c-36.8,0.3-63.9-22.4-63.9-66
		c0-42.8,28.4-65.2,64.7-65c16.6,0,32.5,7.8,39.5,20.1L-2040.4,4115.2z M-2114.9,4177.1c0,23.7,16.4,37.8,36.8,37.8
		c48.3,0,48.3-75.3,0-75.3C-2098.5,4139.6-2114.9,4153.4-2114.9,4177.1z"/>
	<path class="st0" d="M-1954.5,4063.3v176h-30.5v-176H-1954.5z"/>
	<path class="st0" d="M-1901.4,4188.2c2,15.4,15.4,26.4,37,26.4c11.3,0,26.2-4.3,33.2-11.6l19.6,19.4
		c-13.1,13.6-34.5,20.1-53.4,20.1c-42.8,0-68.2-26.4-68.2-66.2c0-37.8,25.7-65,66-65c41.5,0,67.5,25.7,62.7,76.8H-1901.4z
		 M-1833.9,4162.8c-2-16.1-14.6-24.2-32.2-24.2c-16.6,0-30.2,8.1-34.7,24.2H-1833.9z"/>
	<path class="st0" d="M-1699.8,4148.2c-8.8-8.3-18.9-11.1-30.7-11.1c-14.6,0-22.7,4.5-22.7,12.3c0,8.1,7.3,12.6,23.2,13.6
		c23.4,1.5,53.1,6.8,53.1,39.8c0,21.9-17.9,40.8-53.4,40.8c-19.6,0-39.3-3.3-57.4-22.2l15.1-21.9c8.8,9.8,29,17.1,42.8,17.4
		c11.6,0.3,22.4-5.8,22.4-14.9c0-8.6-7-12.1-24.7-13.1c-23.4-1.8-51.4-10.3-51.4-38.5c0-28.7,29.7-38.8,52.4-38.8
		c19.4,0,34,3.8,48.3,16.4L-1699.8,4148.2z"/>
</g>
<rect x="-5543" y="2159.3" class="st2" width="420" height="283"/>
<g>
	<path class="st3" d="M-5344.5,2257.2c0,34.4-10.1,44.4-85.9,178.6h-61.6l53.3-95.9c-5.3,1.3-10.6,2-16,2
		c-40.9,0-78.3-37.4-78.3-85.4c0-50.5,41.4-93.2,94.2-93.2C-5385.6,2163.3-5344.5,2206.3-5344.5,2257.2z M-5398.4,2257.3
		c0-21.9-18.4-40.5-40.5-40.5c-22.3,0-40.4,18.6-40.4,40.5c0,21.8,18.3,40.4,40.4,40.4C-5416.8,2297.7-5398.4,2279.3-5398.4,2257.3z
		"/>
	<path class="st3" d="M-5132.9,2257.2c0,34.4-10.1,44.4-85.9,178.6h-61.6l53.3-95.9c-5.3,1.3-10.6,2-16,2
		c-40.9,0-78.3-37.4-78.3-85.4c0-50.5,41.4-93.2,94.2-93.2C-5173.9,2163.3-5132.9,2206.3-5132.9,2257.2z M-5186.7,2257.3
		c0-21.9-18.4-40.5-40.5-40.5c-22.3,0-40.4,18.6-40.4,40.5c0,21.8,18.3,40.4,40.4,40.4C-5205.1,2297.7-5186.7,2279.3-5186.7,2257.3z
		"/>
</g>
<g>
	<path class="st0" d="M-5070.8,2266.8l3.1,19.8c13.2-21.2,30.9-24.3,48.2-24.3c17.7,0,34.7,6.9,44.1,16.3l-19.1,36.8
		c-8.7-7.3-16.7-11.1-30.5-11.1c-22.2,0-42.7,11.8-42.7,43.4v90.2h-42.3v-171.1H-5070.8z"/>
	<path class="st0" d="M-4923.3,2367.4c2.8,21.2,21.2,36.4,51,36.4c15.6,0,36.1-5.9,45.8-16l27.1,26.7c-18,18.7-47.5,27.8-73.6,27.8
		c-59,0-94-36.4-94-91.3c0-52.1,35.4-89.5,90.9-89.5c57.3,0,93,35.4,86.4,105.8H-4923.3z M-4830.3,2332.4
		c-2.8-22.2-20.1-33.3-44.4-33.3c-22.9,0-41.6,11.1-47.9,33.3H-4830.3z"/>
	<path class="st0" d="M-4621.4,2266.8h40.6v171.1h-39.9l-2.1-25c-9.7,20.1-36.4,29.8-55.5,30.2c-50.7,0.3-88.1-30.9-88.1-90.9
		c0-59,39.2-89.9,89.2-89.5c22.9,0,44.8,10.8,54.5,27.8L-4621.4,2266.8z M-4724.1,2352.2c0,32.6,22.6,52.1,50.7,52.1
		c66.6,0,66.6-103.8,0-103.8C-4701.6,2300.5-4724.1,2319.6-4724.1,2352.2z"/>
	<path class="st0" d="M-4503.1,2195.3v242.6h-42v-242.6H-4503.1z"/>
	<path class="st0" d="M-4429.9,2367.4c2.8,21.2,21.2,36.4,51,36.4c15.6,0,36.1-5.9,45.8-16l27.1,26.7c-18,18.7-47.5,27.8-73.6,27.8
		c-59,0-94-36.4-94-91.3c0-52.1,35.4-89.5,90.9-89.5c57.3,0,93,35.4,86.4,105.8H-4429.9z M-4336.9,2332.4
		c-2.8-22.2-20.1-33.3-44.4-33.3c-22.9,0-41.6,11.1-47.9,33.3H-4336.9z"/>
	<path class="st0" d="M-4151.9,2312.3c-12.1-11.5-26-15.3-42.3-15.3c-20.1,0-31.2,6.2-31.2,17c0,11.1,10.1,17.4,31.9,18.7
		c32.3,2.1,73.2,9.4,73.2,54.8c0,30.2-24.6,56.2-73.6,56.2c-27.1,0-54.1-4.5-79.1-30.5l20.8-30.2c12.1,13.5,39.9,23.6,59,23.9
		c16,0.3,30.9-8,30.9-20.5c0-11.8-9.7-16.7-34-18c-32.3-2.4-70.8-14.2-70.8-53.1c0-39.6,40.9-53.4,72.2-53.4
		c26.7,0,46.8,5.2,66.6,22.6L-4151.9,2312.3z"/>
</g>
<g>
	<path class="st0" d="M-5435.5,144.2c0,34.4-10.1,44.4-85.9,178.6h-61.6l53.3-95.9c-5.3,1.3-10.6,2-16,2
		c-40.9,0-78.3-37.4-78.3-85.4c0-50.5,41.4-93.2,94.2-93.2C-5476.6,50.3-5435.5,93.3-5435.5,144.2z M-5489.4,144.3
		c0-21.9-18.4-40.5-40.5-40.5c-22.3,0-40.4,18.6-40.4,40.5c0,21.8,18.3,40.4,40.4,40.4C-5507.8,184.7-5489.4,166.3-5489.4,144.3z"/>
	<path class="st0" d="M-5223.9,144.2c0,34.4-10.1,44.4-85.9,178.6h-61.6l53.3-95.9c-5.3,1.3-10.6,2-16,2
		c-40.9,0-78.3-37.4-78.3-85.4c0-50.5,41.4-93.2,94.2-93.2C-5264.9,50.3-5223.9,93.3-5223.9,144.2z M-5277.7,144.3
		c0-21.9-18.4-40.5-40.5-40.5c-22.3,0-40.4,18.6-40.4,40.5c0,21.8,18.3,40.4,40.4,40.4C-5296.1,184.7-5277.7,166.3-5277.7,144.3z"/>
</g>
<g>
	<path class="st0" d="M-5152.9,149.2l3.1,19.4c12.9-20.8,30.3-23.8,47.3-23.8c17.4,0,34,6.8,43.2,16l-18.7,36.1
		c-8.5-7.1-16.3-10.9-29.9-10.9c-21.8,0-41.9,11.6-41.9,42.5V317h-41.5V149.2H-5152.9z"/>
	<path class="st0" d="M-5008.3,247.9c2.7,20.8,20.8,35.7,50,35.7c15.3,0,35.4-5.8,44.9-15.7l26.5,26.2
		c-17.7,18.4-46.6,27.2-72.1,27.2c-57.8,0-92.2-35.7-92.2-89.5c0-51,34.7-87.8,89.2-87.8c56.1,0,91.2,34.7,84.7,103.8H-5008.3z
		 M-4917.1,213.6c-2.7-21.8-19.7-32.7-43.6-32.7c-22.5,0-40.8,10.9-47,32.7H-4917.1z"/>
	<path class="st0" d="M-4712.3,149.2h39.8V317h-39.1l-2-24.5c-9.5,19.7-35.7,29.3-54.4,29.6c-49.7,0.3-86.4-30.3-86.4-89.2
		c0-57.8,38.5-88.1,87.5-87.8c22.5,0,43.9,10.5,53.4,27.2L-4712.3,149.2z M-4813,233c0,32,22.1,51,49.7,51
		c65.3,0,65.3-101.7,0-101.7C-4790.9,182.3-4813,201-4813,233z"/>
	<path class="st0" d="M-4596.3,79.1V317h-41.2V79.1H-4596.3z"/>
	<path class="st0" d="M-4524.5,247.9c2.7,20.8,20.8,35.7,50,35.7c15.3,0,35.4-5.8,44.9-15.7l26.5,26.2
		c-17.7,18.4-46.6,27.2-72.1,27.2c-57.8,0-92.2-35.7-92.2-89.5c0-51,34.7-87.8,89.2-87.8c56.1,0,91.2,34.7,84.7,103.8H-4524.5z
		 M-4433.3,213.6c-2.7-21.8-19.7-32.7-43.6-32.7c-22.5,0-40.8,10.9-47,32.7H-4433.3z"/>
	<path class="st0" d="M-4251.9,193.8c-11.9-11.2-25.5-15-41.5-15c-19.7,0-30.6,6.1-30.6,16.7c0,10.9,9.9,17,31.3,18.4
		c31.6,2,71.8,9.2,71.8,53.8c0,29.6-24.2,55.1-72.1,55.1c-26.5,0-53.1-4.4-77.6-29.9l20.4-29.6c11.9,13.3,39.1,23.1,57.8,23.5
		c15.7,0.3,30.3-7.8,30.3-20.1c0-11.6-9.5-16.3-33.3-17.7c-31.6-2.4-69.4-14-69.4-52.1c0-38.8,40.2-52.4,70.8-52.4
		c26.2,0,45.9,5.1,65.3,22.1L-4251.9,193.8z"/>
</g>
<g>
	<path class="st2" d="M-2723.5-2135.8c0,34.4-10.1,44.4-85.9,178.6h-61.6l53.3-95.9c-5.3,1.3-10.6,2-16,2
		c-40.9,0-78.3-37.4-78.3-85.4c0-50.5,41.4-93.2,94.2-93.2C-2764.6-2229.7-2723.5-2186.7-2723.5-2135.8z M-2777.4-2135.7
		c0-21.9-18.4-40.5-40.5-40.5c-22.3,0-40.4,18.6-40.4,40.5c0,21.8,18.3,40.4,40.4,40.4C-2795.8-2095.3-2777.4-2113.7-2777.4-2135.7z
		"/>
	<path class="st2" d="M-2511.9-2135.8c0,34.4-10.1,44.4-85.9,178.6h-61.6l53.3-95.9c-5.3,1.3-10.6,2-16,2
		c-40.9,0-78.3-37.4-78.3-85.4c0-50.5,41.4-93.2,94.2-93.2C-2552.9-2229.7-2511.9-2186.7-2511.9-2135.8z M-2565.7-2135.7
		c0-21.9-18.4-40.5-40.5-40.5c-22.3,0-40.4,18.6-40.4,40.5c0,21.8,18.3,40.4,40.4,40.4C-2584.1-2095.3-2565.7-2113.7-2565.7-2135.7z
		"/>
</g>
<g>
	<path class="st0" d="M-2440.9-2130.8l3.1,19.4c12.9-20.8,30.3-23.8,47.3-23.8c17.4,0,34,6.8,43.2,16l-18.7,36.1
		c-8.5-7.1-16.3-10.9-29.9-10.9c-21.8,0-41.9,11.6-41.9,42.5v88.5h-41.5v-167.8H-2440.9z"/>
	<path class="st0" d="M-2296.3-2032.1c2.7,20.8,20.8,35.7,50,35.7c15.3,0,35.4-5.8,44.9-15.7l26.5,26.2
		c-17.7,18.4-46.6,27.2-72.1,27.2c-57.8,0-92.2-35.7-92.2-89.5c0-51,34.7-87.8,89.2-87.8c56.1,0,91.2,34.7,84.7,103.8H-2296.3z
		 M-2205.1-2066.4c-2.7-21.8-19.7-32.7-43.6-32.7c-22.5,0-40.8,10.9-47,32.7H-2205.1z"/>
	<path class="st0" d="M-2000.3-2130.8h39.8v167.8h-39.1l-2-24.5c-9.5,19.7-35.7,29.3-54.4,29.6c-49.7,0.3-86.4-30.3-86.4-89.2
		c0-57.8,38.5-88.1,87.5-87.8c22.5,0,43.9,10.5,53.4,27.2L-2000.3-2130.8z M-2101-2047c0,32,22.1,51,49.7,51
		c65.3,0,65.3-101.7,0-101.7C-2078.9-2097.7-2101-2079-2101-2047z"/>
	<path class="st0" d="M-1884.3-2200.9v237.9h-41.2v-237.9H-1884.3z"/>
	<path class="st0" d="M-1812.5-2032.1c2.7,20.8,20.8,35.7,50,35.7c15.3,0,35.4-5.8,44.9-15.7l26.5,26.2
		c-17.7,18.4-46.6,27.2-72.1,27.2c-57.8,0-92.2-35.7-92.2-89.5c0-51,34.7-87.8,89.2-87.8c56.1,0,91.2,34.7,84.7,103.8H-1812.5z
		 M-1721.3-2066.4c-2.7-21.8-19.7-32.7-43.6-32.7c-22.5,0-40.8,10.9-47,32.7H-1721.3z"/>
	<path class="st0" d="M-1539.9-2086.2c-11.9-11.2-25.5-15-41.5-15c-19.7,0-30.6,6.1-30.6,16.7c0,10.9,9.9,17,31.3,18.4
		c31.6,2,71.8,9.2,71.8,53.8c0,29.6-24.2,55.1-72.1,55.1c-26.5,0-53.1-4.4-77.6-29.9l20.4-29.6c11.9,13.3,39.1,23.1,57.8,23.5
		c15.7,0.3,30.3-7.8,30.3-20.1c0-11.6-9.5-16.3-33.3-17.7c-31.6-2.4-69.4-14-69.4-52.1c0-38.8,40.2-52.4,70.8-52.4
		c26.2,0,45.9,5.1,65.3,22.1L-1539.9-2086.2z"/>
</g>
<text transform="matrix(1 0 0 1 -5253.5913 -2057.9927)" style="font-family:'LEMONMILK-Medium'; font-size:340.2794px;">99</text>
<text transform="matrix(1 0 0 1 -4823.0059 -2057.9927)" style="font-family:'NexaBold'; font-size:340.2794px;">reales</text>
<rect x="-3424" y="-2442.7" class="st2" width="140" height="140"/>
<rect x="-3424" y="-2229.7" class="st0" width="140" height="140"/>
<path class="st2" d="M-6659,4497.8c-13.4,0-25.9-5.2-35.4-14.6c-9.5-9.4-14.7-22-14.7-35.4v-152.5c0-13.4,5.2-25.9,14.7-35.4
	l133-133c9.4-9.4,22-14.7,35.4-14.7s25.9,5.2,35.4,14.7l133,133c9.4,9.4,14.6,22,14.7,35.4l-18,0c0-8.5-3.3-16.6-9.4-22.6l-133-133
	c-6-6-14.1-9.4-22.6-9.4c-8.6,0-16.6,3.3-22.6,9.4l-133,133c-6,6-9.4,14.1-9.4,22.6v152.5c0,8.6,3.3,16.6,9.4,22.6
	c6,6,14.1,9.4,22.6,9.4c0,0,0,0,0,0l1001.7-0.1c13.4,0,24.2-10.9,24.2-24.2v-15.2h18v15.2c0,23.3-18.9,42.2-42.2,42.2L-6659,4497.8
	C-6659,4497.8-6659,4497.8-6659,4497.8z"/>
<path class="st2" d="M-6526,4254c-21.5,0-39.1-17.5-39.1-39.1s17.5-39.1,39.1-39.1s39.1,17.5,39.1,39.1S-6504.4,4254-6526,4254z
	 M-6526,4193.9c-11.6,0-21.1,9.5-21.1,21.1c0,11.6,9.5,21.1,21.1,21.1s21.1-9.5,21.1-21.1C-6504.9,4203.4-6514.4,4193.9-6526,4193.9
	z"/>
<path class="st4" d="M-5471,3564.3c0-10.9-4.3-21.3-12-29l-133-133c-16-16-42-16-58,0l-133,133c-7.7,7.7-12,18.1-12,29v152.5
	c0,22.7,18.4,41,41,41l1001.7-0.1c18.3,0,33.2-14.9,33.2-33.2v-15.2"/>
<circle class="st4" cx="-5645" cy="3484" r="30.1"/>
<path class="st4" d="M-4658,4532.3c0-10.9-4.3-21.3-12-29l-133-133c-16-16-42-16-58,0l-133,133c-7.7,7.7-12,18.1-12,29v152.5
	c0,22.7,18.4,41,41,41l1005.9-0.1"/>
<circle class="st4" cx="-4832" cy="4452" r="30.1"/>
<path class="st4" d="M-3729,4603.6c0-8.9,3.5-17.4,9.8-23.7l108.7-108.7c13.1-13.1,34.3-13.1,47.4,0l108.7,108.7
	c6.3,6.3,9.8,14.8,9.8,23.7v124.7c0,18.5-15,33.6-33.6,33.5l-217.5,0c-18.5,0-33.5-15-33.5-33.6"/>
<circle class="st4" cx="-3586.8" cy="4537.9" r="24.6"/>
<path class="st2" d="M-2687,4305.3c-14.2,0-27.6-5.5-37.7-15.6c-10.1-10.1-15.6-23.5-15.6-37.7v-151.7c0-14.2,5.5-27.6,15.6-37.7
	l132.2-132.2c20.8-20.8,54.6-20.8,75.4,0l132.2,132.2c10.1,10.1,15.6,23.4,15.6,37.7l-25,0c0-7.6-2.9-14.7-8.3-20l-132.2-132.2
	c-11-11-29-11-40,0l-132.2,132.2c-5.3,5.3-8.3,12.5-8.3,20V4252c0,7.6,2.9,14.7,8.3,20c5.3,5.3,12.5,8.3,20,8.3c0,0,0,0,0,0
	l264.5-0.1c7.6,0,14.7-2.9,20-8.3c5.3-5.3,8.3-12.5,8.3-20l25,0c0,14.2-5.5,27.6-15.6,37.7c-10.1,10.1-23.5,15.6-37.7,15.6
	L-2687,4305.3C-2687,4305.3-2687,4305.3-2687,4305.3z"/>
<path class="st5" d="M-4111.4,4100.4c0-10.8-4.3-21.2-12-28.8l-132.2-132.2c-15.9-15.9-41.8-15.9-57.7,0l-132.2,132.2
	c-7.7,7.7-12,18-12,28.9V4252c0,22.5,18.3,40.8,40.8,40.8l264.5-0.1c22.5,0,40.8-18.3,40.8-40.8"/>
<path class="st2" d="M-2554.8,4061.4c-22.6,0-40.9-18.4-40.9-40.9c0-22.6,18.4-40.9,40.9-40.9s40.9,18.4,40.9,40.9
	C-2513.9,4043-2532.2,4061.4-2554.8,4061.4z M-2554.8,4001.6c-10.4,0-18.9,8.5-18.9,18.9c0,10.4,8.5,18.9,18.9,18.9
	s18.9-8.5,18.9-18.9C-2535.9,4010-2544.3,4001.6-2554.8,4001.6z"/>
<g>
	<g>
		<path class="st0" d="M-7978.8,2288.8c0-33-26.9-59.8-60-59.8c-33.1,0-60,26.6-60,59.3c0,29.3,22.5,54,49.1,54
			c3.3,0,6.6-0.4,9.8-1.2l10.1-2.5l-37.8,68h31.9c9-15.9,16.8-29.5,23-40.5C-7983.3,2314.7-7978.8,2306.8-7978.8,2288.8z
			 M-8038.9,2321.1c-17.4,0-32.1-14.7-32.1-32.1c0-17.8,14.4-32.3,32.1-32.3c17.5,0,32.3,14.8,32.3,32.3
			C-8006.6,2306.3-8021.4,2321.1-8038.9,2321.1z"/>
	</g>
	<g>
		<path class="st0" d="M-7833.8,2288.8c0-33-26.9-59.8-60-59.8s-60,26.6-60,59.3c0,29.3,22.5,54,49.1,54c3.3,0,6.6-0.4,9.8-1.2
			l10.1-2.5l-37.8,68h31.9c9-15.9,16.7-29.5,23-40.5C-7838.3,2314.7-7833.8,2306.8-7833.8,2288.8z M-7893.9,2321.1
			c-17.4,0-32.1-14.7-32.1-32.1c0-17.8,14.4-32.3,32.1-32.3c17.5,0,32.3,14.8,32.3,32.3C-7861.7,2306.3-7876.5,2321.1-7893.9,2321.1
			z"/>
	</g>
</g>
<g>
	<path class="st0" d="M-7782.4,2262.2l2.3,14.4c9.6-15.4,22.4-17.6,35-17.6c12.8,0,25.2,5,32,11.8l-13.8,26.7
		c-6.3-5.3-12.1-8.1-22.2-8.1c-16.1,0-31,8.6-31,31.5v65.5h-30.7v-124.1H-7782.4z"/>
	<path class="st0" d="M-7675.4,2335.2c2,15.4,15.4,26.4,37,26.4c11.3,0,26.2-4.3,33.2-11.6l19.6,19.4
		c-13.1,13.6-34.5,20.1-53.4,20.1c-42.8,0-68.2-26.4-68.2-66.2c0-37.8,25.7-65,66-65c41.5,0,67.5,25.7,62.7,76.8H-7675.4z
		 M-7607.9,2309.8c-2-16.1-14.6-24.2-32.2-24.2c-16.6,0-30.2,8.1-34.7,24.2H-7607.9z"/>
	<path class="st0" d="M-7456.4,2262.2h29.5v124.1h-29l-1.5-18.1c-7,14.6-26.4,21.7-40.3,21.9c-36.8,0.3-63.9-22.4-63.9-66
		c0-42.8,28.4-65.2,64.7-65c16.6,0,32.5,7.8,39.5,20.1L-7456.4,2262.2z M-7530.9,2324.1c0,23.7,16.4,37.8,36.8,37.8
		c48.3,0,48.3-75.3,0-75.3C-7514.5,2286.6-7530.9,2300.4-7530.9,2324.1z"/>
	<path class="st0" d="M-7370.5,2210.3v176h-30.5v-176H-7370.5z"/>
	<path class="st0" d="M-7317.4,2335.2c2,15.4,15.4,26.4,37,26.4c11.3,0,26.2-4.3,33.2-11.6l19.6,19.4
		c-13.1,13.6-34.5,20.1-53.4,20.1c-42.8,0-68.2-26.4-68.2-66.2c0-37.8,25.7-65,66-65c41.5,0,67.5,25.7,62.7,76.8H-7317.4z
		 M-7249.9,2309.8c-2-16.1-14.6-24.2-32.2-24.2c-16.6,0-30.2,8.1-34.7,24.2H-7249.9z"/>
	<path class="st0" d="M-7115.8,2295.2c-8.8-8.3-18.9-11.1-30.7-11.1c-14.6,0-22.7,4.5-22.7,12.3c0,8.1,7.3,12.6,23.2,13.6
		c23.4,1.5,53.1,6.8,53.1,39.8c0,21.9-17.9,40.8-53.4,40.8c-19.6,0-39.3-3.3-57.4-22.2l15.1-21.9c8.8,9.8,29,17.1,42.8,17.4
		c11.6,0.3,22.4-5.8,22.4-14.9c0-8.6-7-12.1-24.7-13.1c-23.4-1.8-51.4-10.3-51.4-38.5c0-28.7,29.7-38.8,52.4-38.8
		c19.4,0,34,3.8,48.3,16.4L-7115.8,2295.2z"/>
</g>
<g>
	<path class="st0" d="M-7716.6,2976.3l1.4,8.7c5.8-9.3,13.5-10.6,21.1-10.6c7.8,0,15.2,3,19.3,7.1l-8.4,16.1
		c-3.8-3.2-7.3-4.9-13.4-4.9c-9.7,0-18.7,5.2-18.7,19v39.6h-18.6v-75H-7716.6z"/>
	<path class="st0" d="M-7652,3020.4c1.2,9.3,9.3,16,22.4,16c6.8,0,15.8-2.6,20.1-7l11.9,11.7c-7.9,8.2-20.8,12.2-32.2,12.2
		c-25.9,0-41.2-16-41.2-40c0-22.8,15.5-39.2,39.9-39.2c25.1,0,40.8,15.5,37.9,46.4H-7652z M-7611.2,3005.1
		c-1.2-9.7-8.8-14.6-19.5-14.6c-10,0-18.3,4.9-21,14.6H-7611.2z"/>
	<path class="st0" d="M-7519.7,2976.3h17.8v75h-17.5l-0.9-11c-4.3,8.8-16,13.1-24.3,13.2c-22.2,0.2-38.6-13.5-38.6-39.9
		c0-25.9,17.2-39.4,39.1-39.2c10,0,19.6,4.7,23.9,12.2L-7519.7,2976.3z M-7564.7,3013.7c0,14.3,9.9,22.8,22.2,22.8
		c29.2,0,29.2-45.5,0-45.5C-7554.8,2991.1-7564.7,2999.4-7564.7,3013.7z"/>
	<path class="st0" d="M-7467.8,2945v106.3h-18.4V2945H-7467.8z"/>
	<path class="st0" d="M-7435.7,3020.4c1.2,9.3,9.3,16,22.4,16c6.8,0,15.8-2.6,20.1-7l11.9,11.7c-7.9,8.2-20.8,12.2-32.2,12.2
		c-25.9,0-41.2-16-41.2-40c0-22.8,15.5-39.2,39.9-39.2c25.1,0,40.8,15.5,37.9,46.4H-7435.7z M-7394.9,3005.1
		c-1.2-9.7-8.8-14.6-19.5-14.6c-10,0-18.3,4.9-21,14.6H-7394.9z"/>
	<path class="st0" d="M-7313.8,2996.3c-5.3-5-11.4-6.7-18.6-6.7c-8.8,0-13.7,2.7-13.7,7.5c0,4.9,4.4,7.6,14,8.2
		c14.1,0.9,32.1,4.1,32.1,24c0,13.2-10.8,24.6-32.2,24.6c-11.9,0-23.7-2-34.7-13.4l9.1-13.2c5.3,5.9,17.5,10.3,25.9,10.5
		c7,0.2,13.5-3.5,13.5-9c0-5.2-4.3-7.3-14.9-7.9c-14.1-1.1-31-6.2-31-23.3c0-17.3,17.9-23.4,31.6-23.4c11.7,0,20.5,2.3,29.2,9.9
		L-7313.8,2996.3z"/>
</g>
<path class="st2" d="M-8103,2452.3c-14.2,0-27.6-5.5-37.7-15.6c-10.1-10.1-15.6-23.5-15.6-37.7v-198.7c0-14.2,5.5-27.6,15.6-37.7
	l132.2-132.2c20.8-20.8,54.6-20.8,75.4,0l132.2,132.2c9.9,9.9,15.4,23,15.6,36.9c0,0.2,0,49.5,0,49.7l-25,0c0-0.2,0-49.4,0-49.6
	c-0.2-7.3-3.1-14.2-8.3-19.4l-132.2-132.2c-11-11-29-11-40,0l-132.2,132.2c-5.3,5.3-8.3,12.5-8.3,20V2399c0,7.6,2.9,14.7,8.3,20
	c5.3,5.3,12.5,8.3,20,8.3c0,0,0,0,0,0l264.5-0.1c7.6,0,14.7-2.9,20-8.3c5.3-5.3,8.3-12.5,8.3-20l25,0c0,14.2-5.5,27.6-15.6,37.7
	c-10.1,10.1-23.5,15.6-37.7,15.6L-8103,2452.3C-8103,2452.3-8103,2452.3-8103,2452.3z"/>
<path class="st2" d="M-7970.8,2169.4c-22.6,0-40.9-18.4-40.9-40.9c0-22.6,18.4-40.9,40.9-40.9s40.9,18.4,40.9,40.9
	C-7929.9,2151-7948.2,2169.4-7970.8,2169.4z M-7970.8,2109.6c-10.4,0-18.9,8.5-18.9,18.9c0,10.4,8.5,18.9,18.9,18.9
	s18.9-8.5,18.9-18.9C-7951.9,2118-7960.3,2109.6-7970.8,2109.6z"/>
<g>
	<g>
		<path class="st0" d="M-8408.1,2079.4c0-13.6-11.1-24.7-24.8-24.7c-13.7,0-24.8,11-24.8,24.5c0,12.1,9.3,22.3,20.3,22.3
			c1.3,0,2.7-0.2,4.1-0.5l4.2-1l-15.7,28.1h13.2c3.7-6.6,6.9-12.2,9.5-16.7C-8409.9,2090.1-8408.1,2086.9-8408.1,2079.4z
			 M-8432.9,2092.8c-7.2,0-13.3-6.1-13.3-13.3c0-7.4,6-13.3,13.3-13.3c7.2,0,13.3,6.1,13.3,13.3
			C-8419.6,2086.7-8425.7,2092.8-8432.9,2092.8z"/>
	</g>
	<g>
		<path class="st0" d="M-8348.1,2079.4c0-13.6-11.1-24.7-24.8-24.7c-13.7,0-24.8,11-24.8,24.5c0,12.1,9.3,22.3,20.3,22.3
			c1.3,0,2.7-0.2,4.1-0.5l4.2-1l-15.7,28.1h13.2c3.7-6.6,6.9-12.2,9.5-16.7C-8350,2090.1-8348.1,2086.9-8348.1,2079.4z
			 M-8373,2092.8c-7.2,0-13.3-6.1-13.3-13.3c0-7.4,6-13.3,13.3-13.3c7.2,0,13.3,6.1,13.3,13.3
			C-8359.6,2086.7-8365.8,2092.8-8373,2092.8z"/>
	</g>
</g>
<path class="st2" d="M-8459.5,2147.1c-5.9,0-11.4-2.3-15.6-6.5c-4.2-4.2-6.5-9.7-6.5-15.6v-82.2c0-5.9,2.3-11.4,6.5-15.6l54.7-54.7
	c8.6-8.6,22.6-8.6,31.2,0l54.7,54.7c4.1,4.1,6.4,9.5,6.5,15.3c0,0.1,0,20.5,0,20.6l-10.3,0c0-0.1,0-20.4,0-20.5
	c-0.1-3-1.3-5.9-3.4-8l-54.7-54.7c-4.6-4.6-12-4.6-16.6,0l-54.7,54.7c-2.2,2.2-3.4,5.2-3.4,8.3v82.2c0,3.1,1.2,6.1,3.4,8.3
	c2.2,2.2,5.2,3.4,8.3,3.4c0,0,0,0,0,0l109.4,0c3.1,0,6.1-1.2,8.3-3.4c2.2-2.2,3.4-5.2,3.4-8.3l10.3,0c0,5.9-2.3,11.4-6.5,15.6
	c-4.2,4.2-9.7,6.5-15.6,6.5L-8459.5,2147.1C-8459.5,2147.1-8459.5,2147.1-8459.5,2147.1z"/>
<path class="st2" d="M-8404.8,2030c-9.3,0-16.9-7.6-16.9-16.9c0-9.3,7.6-16.9,16.9-16.9s16.9,7.6,16.9,16.9
	C-8387.8,2022.4-8395.4,2030-8404.8,2030z M-8404.8,2005.3c-4.3,0-7.8,3.5-7.8,7.8c0,4.3,3.5,7.8,7.8,7.8s7.8-3.5,7.8-7.8
	C-8396.9,2008.8-8400.5,2005.3-8404.8,2005.3z"/>
<path class="st2" d="M-7753,3044c0,5.9-2.3,11.4-6.5,15.6c-4.2,4.2-9.7,6.5-15.6,6.5l-109.4,0c0,0,0,0,0,0c-5.9,0-11.4-2.3-15.6-6.5
	c-4.2-4.2-6.5-9.7-6.5-15.6v-96.2c0-5.9,2.3-11.4,6.5-15.6l54.7-54.7c8.6-8.6,22.6-8.6,31.2,0l54.7,54.7c4.1,4.1,6.4,9.5,6.5,15.3
	c0,0.1,0,34.5,0,34.6"/>
<g>
	<path class="st0" d="M-2196.1,4569.9c0-14.3-11.7-26-26.1-26c-14.4,0-26.1,11.6-26.1,25.8c0,12.7,9.8,23.5,21.4,23.5
		c1.4,0,2.9-0.2,4.3-0.5l4.4-1.1l-16.5,29.6h13.9c3.9-6.9,7.3-12.8,10-17.6C-2198.1,4581.2-2196.1,4577.7-2196.1,4569.9z
		 M-2222.3,4583.9c-7.6,0-14-6.4-14-14c0-7.7,6.3-14,14-14c7.6,0,14,6.4,14,14C-2208.2,4577.5-2214.7,4583.9-2222.3,4583.9z"/>
</g>
<g>
	<path class="st0" d="M-2133,4569.9c0-14.3-11.7-26-26.1-26c-14.4,0-26.1,11.6-26.1,25.8c0,12.7,9.8,23.5,21.4,23.5
		c1.4,0,2.9-0.2,4.3-0.5l4.4-1.1l-16.5,29.6h13.9c3.9-6.9,7.3-12.8,10-17.6C-2135,4581.2-2133,4577.7-2133,4569.9z M-2159.2,4583.9
		c-7.6,0-14-6.4-14-14c0-7.7,6.3-14,14-14c7.6,0,14,6.4,14,14C-2145.2,4577.5-2151.6,4583.9-2159.2,4583.9z"/>
</g>
<path class="st2" d="M-2249.3,4641.1c-6.2,0-12-2.4-16.4-6.8c-4.4-4.4-6.8-10.2-6.8-16.4v-66c0-6.2,2.4-12,6.8-16.4l57.6-57.6
	c9-9,23.8-9,32.8,0l57.6,57.6c4.4,4.4,6.8,10.2,6.8,16.4l-10.9,0c0-3.3-1.3-6.4-3.6-8.7l-57.6-57.6c-4.8-4.8-12.6-4.8-17.4,0
	l-57.6,57.6c-2.3,2.3-3.6,5.4-3.6,8.7v66c0,3.3,1.3,6.4,3.6,8.7c2.3,2.3,5.4,3.6,8.7,3.6c0,0,0,0,0,0l115.1,0c3.3,0,6.4-1.3,8.7-3.6
	s3.6-5.4,3.6-8.7l10.9,0c0,6.2-2.4,12-6.8,16.4s-10.2,6.8-16.4,6.8L-2249.3,4641.1C-2249.3,4641.1-2249.3,4641.1-2249.3,4641.1z"/>
<path class="st2" d="M-2191.8,4534.9c-9.8,0-17.8-8-17.8-17.8c0-9.8,8-17.8,17.8-17.8c9.8,0,17.8,8,17.8,17.8
	C-2174,4526.9-2181.9,4534.9-2191.8,4534.9z M-2191.8,4508.8c-4.5,0-8.2,3.7-8.2,8.2c0,4.5,3.7,8.2,8.2,8.2c4.5,0,8.2-3.7,8.2-8.2
	C-2183.5,4512.5-2187.2,4508.8-2191.8,4508.8z"/>
<rect x="-4013" y="3879.3" class="st2" width="396" height="396"/>
<g>
	<g>
		<path class="st3" d="M-7837,2993.6c0-16.1-13.2-29.3-29.4-29.3c-16.2,0-29.4,13-29.4,29.1c0,14.3,11,26.4,24,26.4
			c1.6,0,3.2-0.2,4.8-0.6l4.9-1.2l-18.5,33.3h15.6c4.4-7.8,8.2-14.4,11.3-19.8C-7839.2,3006.3-7837,3002.4-7837,2993.6z
			 M-7866.5,3009.4c-8.5,0-15.7-7.2-15.7-15.7c0-8.7,7.1-15.8,15.7-15.8c8.6,0,15.8,7.2,15.8,15.8
			C-7850.7,3002.2-7857.9,3009.4-7866.5,3009.4z"/>
	</g>
	<g>
		<path class="st3" d="M-7766,2993.6c0-16.1-13.2-29.3-29.4-29.3c-16.2,0-29.4,13-29.4,29.1c0,14.3,11,26.4,24,26.4
			c1.6,0,3.2-0.2,4.8-0.6l4.9-1.2l-18.5,33.3h15.6c4.4-7.8,8.2-14.4,11.3-19.8C-7768.2,3006.3-7766,3002.4-7766,2993.6z
			 M-7795.5,3009.4c-8.5,0-15.7-7.2-15.7-15.7c0-8.7,7.1-15.8,15.7-15.8c8.6,0,15.8,7.2,15.8,15.8
			C-7779.7,3002.2-7786.9,3009.4-7795.5,3009.4z"/>
	</g>
</g>
<path class="st3" d="M-7767.4,2947.7"/>
<path class="st3" d="M-7829.8,2926.2c-9.3,0-16.9-7.6-16.9-16.9c0-9.3,7.6-16.9,16.9-16.9c9.3,0,16.9,7.6,16.9,16.9
	C-7812.8,2918.6-7820.4,2926.2-7829.8,2926.2z M-7829.8,2901.4c-4.3,0-7.8,3.5-7.8,7.8c0,4.3,3.5,7.8,7.8,7.8s7.8-3.5,7.8-7.8
	C-7821.9,2904.9-7825.5,2901.4-7829.8,2901.4z"/>
<rect x="-3209" y="-811.7" class="st0" width="2000" height="2000"/>
<g>
	<path class="st3" d="M-4237.6-234.7l1.4,8.7c5.8-9.3,13.5-10.6,21.1-10.6c7.8,0,15.2,3,19.3,7.1l-8.4,16.1
		c-3.8-3.2-7.3-4.9-13.4-4.9c-9.7,0-18.7,5.2-18.7,19v39.6h-18.6v-75H-4237.6z"/>
	<path class="st3" d="M-4173-190.6c1.2,9.3,9.3,16,22.4,16c6.8,0,15.8-2.6,20.1-7l11.9,11.7c-7.9,8.2-20.8,12.2-32.2,12.2
		c-25.9,0-41.2-16-41.2-40c0-22.8,15.5-39.2,39.9-39.2c25.1,0,40.8,15.5,37.9,46.4H-4173z M-4132.2-205.9
		c-1.2-9.7-8.8-14.6-19.5-14.6c-10,0-18.3,4.9-21,14.6H-4132.2z"/>
	<path class="st3" d="M-4040.7-234.7h17.8v75h-17.5l-0.9-11c-4.3,8.8-16,13.1-24.3,13.2c-22.2,0.2-38.6-13.5-38.6-39.9
		c0-25.9,17.2-39.4,39.1-39.2c10,0,19.6,4.7,23.9,12.2L-4040.7-234.7z M-4085.7-197.3c0,14.3,9.9,22.8,22.2,22.8
		c29.2,0,29.2-45.5,0-45.5C-4075.8-219.9-4085.7-211.6-4085.7-197.3z"/>
	<path class="st3" d="M-3988.8-266v106.3h-18.4V-266H-3988.8z"/>
	<path class="st3" d="M-3956.7-190.6c1.2,9.3,9.3,16,22.4,16c6.8,0,15.8-2.6,20.1-7l11.9,11.7c-7.9,8.2-20.8,12.2-32.2,12.2
		c-25.9,0-41.2-16-41.2-40c0-22.8,15.5-39.2,39.9-39.2c25.1,0,40.8,15.5,37.9,46.4H-3956.7z M-3915.9-205.9
		c-1.2-9.7-8.8-14.6-19.5-14.6c-10,0-18.3,4.9-21,14.6H-3915.9z"/>
	<path class="st3" d="M-3834.8-214.7c-5.3-5-11.4-6.7-18.6-6.7c-8.8,0-13.7,2.7-13.7,7.5c0,4.9,4.4,7.6,14,8.2
		c14.1,0.9,32.1,4.1,32.1,24c0,13.2-10.8,24.6-32.2,24.6c-11.9,0-23.7-2-34.7-13.4l9.1-13.2c5.3,5.9,17.5,10.3,25.9,10.5
		c7,0.2,13.5-3.5,13.5-9c0-5.2-4.3-7.3-14.9-7.9c-14.1-1.1-31-6.2-31-23.3c0-17.3,17.9-23.4,31.6-23.4c11.7,0,20.5,2.3,29.2,9.9
		L-3834.8-214.7z"/>
</g>
<path class="st2" d="M-4268-270.5c-0.1-5.8-2.5-11.2-7-15.3l-59-54.7c-9.3-8.6-24.4-8.6-33.6,0l-59,54.7c-4.5,4.2-7,9.7-7,15.6V-167
	c0,5.9,2.5,11.4,7,15.6c4.5,4.2,10.5,6.5,16.8,6.5c0,0,0,0,0,0l118,0c6.4,0,12.3-2.3,16.8-6.5c4.5-4.2,7-9.7,7-15.6L-4268-270.5z"/>
<g>
	<g>
		<path class="st3" d="M-4358-217.4c0-16.1-13.2-29.3-29.4-29.3c-16.2,0-29.4,13-29.4,29.1c0,14.3,11,26.4,24,26.4
			c1.6,0,3.2-0.2,4.8-0.6l4.9-1.2l-18.5,33.3h15.6c4.4-7.8,8.2-14.4,11.3-19.8C-4360.2-204.7-4358-208.6-4358-217.4z M-4387.5-201.6
			c-8.5,0-15.7-7.2-15.7-15.7c0-8.7,7.1-15.8,15.7-15.8c8.6,0,15.8,7.2,15.8,15.8C-4371.7-208.8-4378.9-201.6-4387.5-201.6z"/>
	</g>
	<g>
		<path class="st3" d="M-4287-217.4c0-16.1-13.2-29.3-29.4-29.3c-16.2,0-29.4,13-29.4,29.1c0,14.3,11,26.4,24,26.4
			c1.6,0,3.2-0.2,4.8-0.6l4.9-1.2l-18.5,33.3h15.6c4.4-7.8,8.2-14.4,11.3-19.8C-4289.2-204.7-4287-208.6-4287-217.4z M-4316.5-201.6
			c-8.5,0-15.7-7.2-15.7-15.7c0-8.7,7.1-15.8,15.7-15.8c8.6,0,15.8,7.2,15.8,15.8C-4300.7-208.8-4307.9-201.6-4316.5-201.6z"/>
	</g>
</g>
<path class="st3" d="M-4288.4-270.3"/>
<path class="st3" d="M-4350.8-291.8c-9.3,0-16.9-7.6-16.9-16.9c0-9.3,7.6-16.9,16.9-16.9c9.3,0,16.9,7.6,16.9,16.9
	C-4333.8-299.4-4341.4-291.8-4350.8-291.8z M-4350.8-316.6c-4.3,0-7.8,3.5-7.8,7.8c0,4.3,3.5,7.8,7.8,7.8s7.8-3.5,7.8-7.8
	C-4342.9-313.1-4346.5-316.6-4350.8-316.6z"/>
<g>
	<g>
		<path class="st3" d="M-2314.7,68l2.2,14c9.3-15,21.9-17.2,34.2-17.2c12.5,0,24.6,4.9,31.2,11.6l-13.5,26.1
			c-6.1-5.2-11.8-7.9-21.6-7.9c-15.7,0-30.3,8.4-30.3,30.7v64h-30V68H-2314.7z"/>
		<path class="st3" d="M-2210.2,139.3c2,15,15,25.8,36.2,25.8c11.1,0,25.6-4.2,32.5-11.3l19.2,18.9c-12.8,13.3-33.7,19.7-52.2,19.7
			c-41.8,0-66.7-25.8-66.7-64.7c0-36.9,25.1-63.5,64.4-63.5c40.6,0,65.9,25.1,61.3,75H-2210.2z M-2144.3,114.5
			c-2-15.7-14.3-23.6-31.5-23.6c-16.2,0-29.5,7.9-33.9,23.6H-2144.3z"/>
		<path class="st3" d="M-1996.2,68h28.8v121.3h-28.3l-1.5-17.7c-6.9,14.3-25.8,21.2-39.4,21.4c-35.9,0.2-62.5-21.9-62.5-64.4
			c0-41.8,27.8-63.7,63.2-63.5c16.2,0,31.7,7.6,38.6,19.7L-1996.2,68z M-2069,128.5c0,23.1,16,36.9,35.9,36.9
			c47.2,0,47.2-73.6,0-73.6C-2053,91.9-2069,105.4-2069,128.5z"/>
		<path class="st3" d="M-1912.3,17.3v171.9h-29.8V17.3H-1912.3z"/>
		<path class="st3" d="M-1860.4,139.3c2,15,15,25.8,36.2,25.8c11.1,0,25.6-4.2,32.5-11.3l19.2,18.9c-12.8,13.3-33.7,19.7-52.1,19.7
			c-41.8,0-66.7-25.8-66.7-64.7c0-36.9,25.1-63.5,64.4-63.5c40.6,0,65.9,25.1,61.3,75H-1860.4z M-1794.5,114.5
			c-2-15.7-14.3-23.6-31.5-23.6c-16.2,0-29.5,7.9-33.9,23.6H-1794.5z"/>
		<path class="st3" d="M-1663.4,100.2c-8.6-8.1-18.4-10.8-30-10.8c-14.3,0-22.1,4.4-22.1,12.1c0,7.9,7.1,12.3,22.6,13.3
			c22.9,1.5,51.9,6.6,51.9,38.9c0,21.4-17.5,39.9-52.2,39.9c-19.2,0-38.4-3.2-56.1-21.6l14.8-21.4c8.6,9.6,28.3,16.7,41.8,17
			c11.3,0.2,21.9-5.7,21.9-14.5c0-8.4-6.9-11.8-24.1-12.8c-22.9-1.7-50.2-10.1-50.2-37.6c0-28,29-37.9,51.2-37.9
			c18.9,0,33.2,3.7,47.2,16L-1663.4,100.2z"/>
	</g>
	<g>
		<path class="st2" d="M-2363.9,10.1c-0.1-9.3-4.1-18.1-11.3-24.7l-95.4-88.5c-15-13.9-39.4-13.9-54.4,0l-95.4,88.5
			c-7.3,6.7-11.3,15.7-11.3,25.2v166.9c0,9.5,4,18.5,11.3,25.2c7.3,6.7,16.9,10.4,27.2,10.4c0,0,0,0,0,0l190.8,0
			c10.3,0,19.9-3.7,27.2-10.5c7.3-6.7,11.3-15.7,11.3-25.2L-2363.9,10.1z"/>
		<path class="st3" d="M-2497.7-24.4c-15.1,0-27.4-12.3-27.4-27.4c0-15.1,12.3-27.4,27.4-27.4c15.1,0,27.4,12.3,27.4,27.4
			C-2470.3-36.7-2482.6-24.4-2497.7-24.4z M-2497.7-64.4c-7,0-12.6,5.7-12.6,12.6c0,7,5.7,12.6,12.6,12.6c7,0,12.6-5.7,12.6-12.6
			C-2485-58.7-2490.7-64.4-2497.7-64.4z"/>
		<g>
			<path class="st3" d="M-2504.1,71.8c0,21.2-8,27.1-50.8,101.2h-27l32.1-55.5c-4.6,1.7-9.4,2.5-14.2,2.5
				c-23.9,0-46.1-20.3-46.1-48.5c0-27.5,23.4-51.4,52.9-51.4C-2527.5,20.1-2504.1,44.3-2504.1,71.8z M-2527.7,71.9
				c0-15-13.4-28.3-29.5-28.3c-16.2,0-29.4,13.4-29.4,28.3c0,15.6,13.2,28.6,29.3,28.6C-2541.1,100.6-2527.7,87.6-2527.7,71.9z"/>
			<path class="st3" d="M-2383.5,71.8c0,21.2-8,27.1-50.8,101.2h-27l32.1-55.5c-4.6,1.7-9.4,2.5-14.2,2.5
				c-23.9,0-46.1-20.3-46.1-48.5c0-27.5,23.4-51.4,52.9-51.4C-2406.9,20.1-2383.5,44.3-2383.5,71.8z M-2407.2,71.9
				c0-15-13.4-28.3-29.5-28.3c-16.2,0-29.4,13.4-29.4,28.3c0,15.6,13.2,28.6,29.3,28.6C-2420.5,100.6-2407.2,87.6-2407.2,71.9z"/>
		</g>
	</g>
</g>
<g>
	<g>
		<path class="st3" d="M97.7,56.3l0.7,4.2c2.8-4.5,6.6-5.2,10.4-5.2c3.8,0,7.5,1.5,9.5,3.5l-4.1,7.9c-1.9-1.6-3.6-2.4-6.6-2.4
			c-4.8,0-9.2,2.5-9.2,9.3V93h-9.1V56.3H97.7z"/>
		<path class="st3" d="M129.3,77.9c0.6,4.5,4.5,7.8,11,7.8c3.4,0,7.7-1.3,9.8-3.4l5.8,5.7c-3.9,4-10.2,6-15.8,6
			c-12.7,0-20.2-7.8-20.2-19.6c0-11.2,7.6-19.2,19.5-19.2c12.3,0,20,7.6,18.6,22.7H129.3z M149.3,70.4c-0.6-4.8-4.3-7.2-9.5-7.2
			c-4.9,0-8.9,2.4-10.3,7.2H149.3z"/>
		<path class="st3" d="M194.2,56.3h8.7V93h-8.6l-0.4-5.4c-2.1,4.3-7.8,6.4-11.9,6.5c-10.9,0.1-18.9-6.6-18.9-19.5
			c0-12.7,8.4-19.3,19.1-19.2c4.9,0,9.6,2.3,11.7,6L194.2,56.3z M172.1,74.6c0,7,4.8,11.2,10.9,11.2c14.3,0,14.3-22.3,0-22.3
			C176.9,63.5,172.1,67.6,172.1,74.6z"/>
		<path class="st3" d="M219.6,41V93h-9V41H219.6z"/>
		<path class="st3" d="M235.3,77.9c0.6,4.5,4.5,7.8,11,7.8c3.4,0,7.7-1.3,9.8-3.4l5.8,5.7c-3.9,4-10.2,6-15.8,6
			c-12.7,0-20.2-7.8-20.2-19.6c0-11.2,7.6-19.2,19.5-19.2c12.3,0,20,7.6,18.6,22.7H235.3z M255.2,70.4c-0.6-4.8-4.3-7.2-9.5-7.2
			c-4.9,0-8.9,2.4-10.3,7.2H255.2z"/>
		<path class="st3" d="M295,66.1c-2.6-2.5-5.6-3.3-9.1-3.3c-4.3,0-6.7,1.3-6.7,3.7c0,2.4,2.2,3.7,6.9,4c6.9,0.4,15.7,2,15.7,11.8
			c0,6.5-5.3,12.1-15.8,12.1c-5.8,0-11.6-1-17-6.6l4.5-6.5c2.6,2.9,8.6,5.1,12.7,5.1c3.4,0.1,6.6-1.7,6.6-4.4c0-2.5-2.1-3.6-7.3-3.9
			c-6.9-0.5-15.2-3.1-15.2-11.4c0-8.5,8.8-11.5,15.5-11.5c5.7,0,10.1,1.1,14.3,4.8L295,66.1z"/>
	</g>
	<g>
		<path class="st2" d="M82.8,38.8c0-2.8-1.2-5.5-3.4-7.5L50.5,4.5C46,0.3,38.6,0.3,34,4.5L5.1,31.3c-2.2,2-3.4,4.8-3.4,7.6v50.5
			c0,2.9,1.2,5.6,3.4,7.6c2.2,2,5.1,3.2,8.2,3.2c0,0,0,0,0,0l57.8,0c3.1,0,6-1.1,8.2-3.2c2.2-2,3.4-4.8,3.4-7.6L82.8,38.8z"/>
		<path class="st3" d="M42.3,28.3c-4.6,0-8.3-3.7-8.3-8.3c0-4.6,3.7-8.3,8.3-8.3s8.3,3.7,8.3,8.3C50.6,24.6,46.8,28.3,42.3,28.3z
			 M42.3,16.2c-2.1,0-3.8,1.7-3.8,3.8c0,2.1,1.7,3.8,3.8,3.8c2.1,0,3.8-1.7,3.8-3.8C46.1,17.9,44.4,16.2,42.3,16.2z"/>
		<g>
			<path class="st3" d="M40.3,57.5c0,6.4-2.4,8.2-15.4,30.7h-8.2l9.7-16.8c-1.4,0.5-2.9,0.8-4.3,0.8c-7.2,0-14-6.1-14-14.7
				c0-8.3,7.1-15.6,16-15.6C33.3,41.8,40.3,49.1,40.3,57.5z M33.2,57.5c0-4.5-4.1-8.6-8.9-8.6c-4.9,0-8.9,4.1-8.9,8.6
				c0,4.7,4,8.7,8.9,8.7C29.1,66.2,33.2,62.2,33.2,57.5z"/>
			<path class="st3" d="M76.9,57.5c0,6.4-2.4,8.2-15.4,30.7h-8.2L63,71.3c-1.4,0.5-2.9,0.8-4.3,0.8c-7.2,0-14-6.1-14-14.7
				c0-8.3,7.1-15.6,16-15.6C69.8,41.8,76.9,49.1,76.9,57.5z M69.7,57.5c0-4.5-4.1-8.6-8.9-8.6c-4.9,0-8.9,4.1-8.9,8.6
				c0,4.7,4,8.7,8.9,8.7C65.6,66.2,69.7,62.2,69.7,57.5z"/>
		</g>
	</g>
</g>
<g>
	<g>
		<path class="st0" d="M-2277.7,2343.2l2.2,14c9.3-15,21.9-17.2,34.2-17.2c12.5,0,24.6,4.9,31.2,11.6l-13.5,26.1
			c-6.1-5.2-11.8-7.9-21.6-7.9c-15.7,0-30.3,8.4-30.3,30.7v64h-30v-121.3H-2277.7z"/>
		<path class="st0" d="M-2173.2,2414.6c2,15,15,25.8,36.2,25.8c11.1,0,25.6-4.2,32.5-11.3l19.2,18.9c-12.8,13.3-33.7,19.7-52.2,19.7
			c-41.8,0-66.7-25.8-66.7-64.7c0-36.9,25.1-63.5,64.4-63.5c40.6,0,65.9,25.1,61.3,75H-2173.2z M-2107.3,2389.7
			c-2-15.7-14.3-23.6-31.5-23.6c-16.2,0-29.5,7.9-33.9,23.6H-2107.3z"/>
		<path class="st0" d="M-1959.2,2343.2h28.8v121.3h-28.3l-1.5-17.7c-6.9,14.3-25.8,21.2-39.4,21.4c-35.9,0.2-62.5-21.9-62.5-64.4
			c0-41.8,27.8-63.7,63.2-63.5c16.2,0,31.7,7.6,38.6,19.7L-1959.2,2343.2z M-2032,2403.7c0,23.1,16,36.9,35.9,36.9
			c47.2,0,47.2-73.6,0-73.6C-2016,2367.1-2032,2380.6-2032,2403.7z"/>
		<path class="st0" d="M-1875.3,2292.6v171.9h-29.8v-171.9H-1875.3z"/>
		<path class="st0" d="M-1823.4,2414.6c2,15,15,25.8,36.2,25.8c11.1,0,25.6-4.2,32.5-11.3l19.2,18.9c-12.8,13.3-33.7,19.7-52.1,19.7
			c-41.8,0-66.7-25.8-66.7-64.7c0-36.9,25.1-63.5,64.4-63.5c40.6,0,65.9,25.1,61.3,75H-1823.4z M-1757.5,2389.7
			c-2-15.7-14.3-23.6-31.5-23.6c-16.2,0-29.5,7.9-33.9,23.6H-1757.5z"/>
		<path class="st0" d="M-1626.4,2375.5c-8.6-8.1-18.4-10.8-30-10.8c-14.3,0-22.1,4.4-22.1,12.1c0,7.9,7.1,12.3,22.6,13.3
			c22.9,1.5,51.9,6.6,51.9,38.9c0,21.4-17.5,39.9-52.2,39.9c-19.2,0-38.4-3.2-56.1-21.6l14.8-21.4c8.6,9.6,28.3,16.7,41.8,17
			c11.3,0.2,21.9-5.7,21.9-14.5c0-8.4-6.9-11.8-24.1-12.8c-22.9-1.7-50.2-10.1-50.2-37.6c0-28,29-37.9,51.2-37.9
			c18.9,0,33.2,3.7,47.2,16L-1626.4,2375.5z"/>
	</g>
	<g>
		<path class="st2" d="M-2326.9,2285.3c-0.1-9.3-4.1-18.1-11.3-24.7l-95.4-88.5c-15-13.9-39.4-13.9-54.4,0l-95.4,88.5
			c-7.3,6.7-11.3,15.7-11.3,25.2v166.9c0,9.5,4,18.5,11.3,25.2c7.3,6.7,16.9,10.4,27.2,10.4c0,0,0,0,0,0l190.8,0
			c10.3,0,19.9-3.7,27.2-10.5c7.3-6.7,11.3-15.7,11.3-25.2L-2326.9,2285.3z"/>
		<path class="st3" d="M-2460.7,2250.8c-15.1,0-27.4-12.3-27.4-27.4c0-15.1,12.3-27.4,27.4-27.4c15.1,0,27.4,12.3,27.4,27.4
			C-2433.3,2238.5-2445.6,2250.8-2460.7,2250.8z M-2460.7,2210.8c-7,0-12.6,5.7-12.6,12.6c0,7,5.7,12.6,12.6,12.6
			c7,0,12.6-5.7,12.6-12.6C-2448,2216.5-2453.7,2210.8-2460.7,2210.8z"/>
		<g>
			<path class="st3" d="M-2467.1,2347.1c0,21.2-8,27.1-50.8,101.2h-27l32.1-55.5c-4.6,1.7-9.4,2.5-14.2,2.5
				c-23.9,0-46.1-20.3-46.1-48.5c0-27.5,23.4-51.4,52.9-51.4C-2490.5,2295.3-2467.1,2319.5-2467.1,2347.1z M-2490.7,2347.2
				c0-15-13.4-28.3-29.5-28.3c-16.2,0-29.4,13.4-29.4,28.3c0,15.6,13.2,28.6,29.3,28.6C-2504.1,2375.8-2490.7,2362.8-2490.7,2347.2z
				"/>
			<path class="st3" d="M-2346.5,2347.1c0,21.2-8,27.1-50.8,101.2h-27l32.1-55.5c-4.6,1.7-9.4,2.5-14.2,2.5
				c-23.9,0-46.1-20.3-46.1-48.5c0-27.5,23.4-51.4,52.9-51.4C-2369.9,2295.3-2346.5,2319.5-2346.5,2347.1z M-2370.2,2347.2
				c0-15-13.4-28.3-29.5-28.3c-16.2,0-29.4,13.4-29.4,28.3c0,15.6,13.2,28.6,29.3,28.6C-2383.5,2375.8-2370.2,2362.8-2370.2,2347.2z
				"/>
		</g>
	</g>
</g>
<path class="st2" d="M-2081.3,501.5c-0.1-3.9-1.7-7.5-4.7-10.2l-39.4-36.6c-6.2-5.7-16.3-5.7-22.5,0l-39.4,36.6
	c-3,2.8-4.7,6.5-4.7,10.4v69c0,3.9,1.7,7.6,4.7,10.4c3,2.8,7,4.3,11.2,4.3c0,0,0,0,0,0l78.9,0c4.2,0,8.2-1.5,11.2-4.3
	c3-2.8,4.7-6.5,4.7-10.4L-2081.3,501.5z"/>
<path class="st3" d="M-2136.6,487.2c-6.2,0-11.3-5.1-11.3-11.3c0-6.2,5.1-11.3,11.3-11.3c6.2,0,11.3,5.1,11.3,11.3
	C-2125.3,482.1-2130.3,487.2-2136.6,487.2z M-2136.6,470.7c-2.9,0-5.2,2.3-5.2,5.2c0,2.9,2.3,5.2,5.2,5.2s5.2-2.3,5.2-5.2
	C-2131.3,473-2133.7,470.7-2136.6,470.7z"/>
<g>
	<path class="st3" d="M-2139.2,527c0,8.8-3.3,11.2-21,41.9h-11.2l13.3-22.9c-1.9,0.7-3.9,1-5.9,1c-9.9,0-19.1-8.4-19.1-20.1
		c0-11.4,9.7-21.3,21.9-21.3C-2148.9,505.6-2139.2,515.6-2139.2,527z M-2149,527c0-6.2-5.5-11.7-12.2-11.7
		c-6.7,0-12.1,5.5-12.1,11.7c0,6.5,5.5,11.8,12.1,11.8C-2154.5,538.9-2149,533.5-2149,527z"/>
	<path class="st3" d="M-2089.4,527c0,8.8-3.3,11.2-21,41.9h-11.2l13.3-22.9c-1.9,0.7-3.9,1-5.9,1c-9.9,0-19.1-8.4-19.1-20.1
		c0-11.4,9.7-21.3,21.9-21.3C-2099,505.6-2089.4,515.6-2089.4,527z M-2099.1,527c0-6.2-5.5-11.7-12.2-11.7
		c-6.7,0-12.1,5.5-12.1,11.7c0,6.5,5.5,11.8,12.1,11.8C-2104.7,538.9-2099.1,533.5-2099.1,527z"/>
</g>
</svg>
